<?xml version="1.0" encoding="UTF-8"?>
<!DOCTYPE svg PUBLIC "-//W3C//DTD SVG 1.1//EN" "http://www.w3.org/Graphics/SVG/1.1/DTD/svg11.dtd">
<!-- Creator: CorelDRAW 2017 -->
<svg xmlns="http://www.w3.org/2000/svg" xml:space="preserve" width="100%" height="100%" version="1.1" style="shape-rendering:geometricPrecision; text-rendering:geometricPrecision; image-rendering:optimizeQuality; fill-rule:evenodd; clip-rule:evenodd"
viewBox="0 0 4500 4500"
 xmlns:xlink="http://www.w3.org/1999/xlink">
 <defs>
  <style type="text/css">
   <![CDATA[
    .fil3 {fill:#AAB6B6}
    .fil2 {fill:#D4F0B3}
    .fil0 {fill:#E7E8D7}
    .fil1 {fill:white}
   ]]>
  </style>
 </defs>
 <g id="Слой_x0020_1">
  <metadata id="CorelCorpID_0Corel-Layer"/>
  <g id="_2786261985040">
   <path class="fil0" d="M2859.77 3295.88c79.35,-640.21 216.41,-370.53 0.85,-563.79l306.56 -76.37c184.51,-433.36 118.62,-431.16 182.77,-797.33l-1449.41 -211.89c-253.68,229.65 -250.56,222.49 -576.49,383.23l278.43 -543.72c-247.88,-305.73 -313.25,-332.02 -202.68,-664.79 -172.77,38.34 -251.78,63.55 -435.91,105.8 -144.76,33.16 -82.06,0.91 -218.96,49.01 -172.86,60.8 -31.43,7.48 -156.04,103.4l31.92 570.54 565.46 256.98c-95.12,332.59 -79.19,633.95 29.89,930.19 1250.65,212.24 1434.49,131.92 1643.61,458.74z"/>
   <path class="fil1" d="M2332.92 4218.61l46.64 -129.14c-484.47,-295.08 145,-136.11 -1044.97,-345.79 65.07,-343.47 -124.72,-156.54 40.45,-461.22l417.45 2.72c456.45,98.39 878.14,95.3 1162.71,293.39 68.79,-124.38 120.1,-50.76 200.41,-81.69l2.16 -17.77 -298 -183.23c-209.12,-326.82 -392.96,-246.5 -1643.61,-458.74 -109.08,-296.24 -125.01,-597.6 -29.89,-930.19l-565.46 -256.98 -31.92 -570.54c-583.99,267.18 -110.34,380.85 -421.14,1265.11 -423.07,1204.33 449.33,382.04 747.75,1382.79 159.16,533.96 817.66,520.98 1417.42,491.28z"/>
   <path class="fil0" d="M1941.66 1307.29c157.96,257.13 614.52,178.06 995.12,170.69l186.68 -194.33c203.99,-171.75 358.47,-252.64 259.64,-500.73 -59.71,-149.87 -302.58,-394.62 -580.45,-499.71l359 -94.91c-564.76,-369.67 -1609.76,29.58 -1761.85,632.92l297.17 60.92c98.04,173.74 149.6,236.39 244.69,425.15z"/>
   <path class="fil2" d="M2859.77 3295.88l298 183.23 294.34 -34.58c217.55,-308.5 350.02,-259.3 586.74,-556.59 247.39,-231.52 224.39,-440.36 321.1,-748.6 -250.53,-26.77 -253.53,-70.53 -416.13,-200.93 -84.98,44.95 117.57,130.33 -317.91,33.7 -45.7,-10.09 -234.01,-96.02 -275.96,-113.72 -64.15,366.17 1.74,363.97 -182.77,797.33l-306.56 76.37c215.56,193.26 78.5,-76.42 -0.85,563.79z"/>
   <path class="fil3" d="M3349.95 1858.39c41.95,17.7 230.26,103.63 275.96,113.72 435.48,96.63 232.93,11.25 317.91,-33.7 162.6,130.4 165.6,174.16 416.13,200.93 -96.71,308.24 -73.71,517.08 -321.1,748.6 283.09,-8.46 337.02,-642.19 405.99,-842.41 -115.59,-75.54 -92.8,-56.32 -102.8,-237.61l-406.89 -664.83c-158.25,338.13 -248.93,372.93 -765.96,360.43l-38.74 131.98c-359.62,-66.56 -1091.97,-115.18 -1188.79,-328.21 -95.09,-188.76 -146.65,-251.41 -244.69,-425.15l-297.17 -60.92c-110.57,332.77 -45.2,359.06 202.68,664.79l-278.43 543.72c325.93,-160.74 322.81,-153.58 576.49,-383.23l1449.41 211.89z"/>
   <path class="fil3" d="M3169.19 1503.52c38.92,-244.94 -3.09,-206.43 215.89,-416.64 199.61,-191.71 1.86,84.61 274.85,-239.06 101.58,175.83 24.17,80.93 252.85,179.87 -7.21,-203.52 -79.43,-343.1 -171.41,-504.82 -161.32,-283.76 -102.56,-187.44 -579.72,-334.57l-359 94.91c277.87,105.09 520.74,349.84 580.45,499.71 98.83,248.09 -55.65,328.98 -259.64,500.73l-186.68 194.33c-380.6,7.37 -837.16,86.44 -995.12,-170.69 96.82,213.03 829.17,261.65 1188.79,328.21l38.74 -131.98z"/>
   <path class="fil3" d="M2379.56 4089.47l-46.64 129.14c359.7,-161.76 646.42,-397.18 822.69,-721.73 -80.31,30.93 -131.62,-42.69 -200.41,81.69 -284.57,-198.09 -706.26,-195 -1162.71,-293.39 -197,17.99 -177.99,71.84 -308.75,136.81l961.69 192.86 -65.87 474.62z"/>
   <path class="fil2" d="M2379.56 4089.47l65.87 -474.62 -961.69 -192.86c130.76,-64.97 111.75,-118.82 308.75,-136.81l-417.45 -2.72c-165.17,304.68 24.62,117.75 -40.45,461.22 1189.97,209.68 560.5,50.71 1044.97,345.79z"/>
   <path class="fil2" d="M3935.15 1143.09l23.95 -52.64 -46.32 -62.76c-228.68,-98.94 -151.27,-4.04 -252.85,-179.87 -272.99,323.67 -75.24,47.35 -274.85,239.06 -218.98,210.21 -176.97,171.7 -215.89,416.64 517.03,12.5 607.71,-22.3 765.96,-360.43z"/>
  </g>
 </g>
</svg>
