<?xml version="1.0" encoding="UTF-8"?>
<!DOCTYPE svg PUBLIC "-//W3C//DTD SVG 1.1//EN" "http://www.w3.org/Graphics/SVG/1.1/DTD/svg11.dtd">
<!-- Creator: CorelDRAW 2017 -->
<svg xmlns="http://www.w3.org/2000/svg" xml:space="preserve" width="100%" height="100%" version="1.1" style="shape-rendering:geometricPrecision; text-rendering:geometricPrecision; image-rendering:optimizeQuality; fill-rule:evenodd; clip-rule:evenodd"
viewBox="0 0 4800 6700"
 xmlns:xlink="http://www.w3.org/1999/xlink">
 <defs>
  <style type="text/css">
   <![CDATA[
    .fil34 {fill:#060502}
    .fil4 {fill:#150803}
    .fil41 {fill:#1A1604}
    .fil21 {fill:#1E2127}
    .fil32 {fill:#2A2816}
    .fil14 {fill:#310A0B}
    .fil35 {fill:#37482F}
    .fil36 {fill:#4A4935}
    .fil49 {fill:#4F524A}
    .fil3 {fill:#500513}
    .fil22 {fill:#532E2D}
    .fil24 {fill:#58364A}
    .fil37 {fill:#58674F}
    .fil20 {fill:#595844}
    .fil10 {fill:#611C20}
    .fil15 {fill:#680515}
    .fil31 {fill:#686447}
    .fil25 {fill:#6A2E31}
    .fil16 {fill:#6B5549}
    .fil28 {fill:#757767}
    .fil29 {fill:#758A71}
    .fil23 {fill:#79AABA}
    .fil48 {fill:#92AD5E}
    .fil27 {fill:#99CCCC}
    .fil19 {fill:#9D1B29}
    .fil33 {fill:#A4605E}
    .fil40 {fill:#A49594}
    .fil26 {fill:#AF744E}
    .fil47 {fill:#AFA954}
    .fil9 {fill:#AFB5AD}
    .fil46 {fill:#B0956A}
    .fil11 {fill:#B5C9AD}
    .fil13 {fill:#B6B9A9}
    .fil5 {fill:#BAC6B5}
    .fil30 {fill:#BC2E3C}
    .fil45 {fill:#BD738C}
    .fil7 {fill:#CAD4C8}
    .fil1 {fill:#CBCCC9}
    .fil39 {fill:#CF916F}
    .fil8 {fill:#D0D0B2}
    .fil6 {fill:#D7D7C9}
    .fil2 {fill:#D8E8D1}
    .fil44 {fill:#E2B7C6}
    .fil38 {fill:#E7A392}
    .fil17 {fill:#E7E8D7}
    .fil43 {fill:#EDD5CD}
    .fil42 {fill:#F3DBE7}
    .fil18 {fill:#F8F8D9}
    .fil12 {fill:#FAF9E9}
    .fil0 {fill:#FAFBF7}
   ]]>
  </style>
 </defs>
 <g id="Слой_x0020_1">
  <metadata id="CorelCorpID_0Corel-Layer"/>
  <g id="_2786143756640">
   <path class="fil0" d="M93.05 1216.84c57.8,86.64 -25.12,34.81 82.39,47.72 32.37,3.94 88.26,-6.63 121.78,-10.3l18.89 -0.93c37.23,-52.63 0.31,-32.9 73.63,-57.36 33.12,-11.05 106,-12.73 141.73,-15.21l218.54 -10.44 10.97 14.38c53.24,-59.75 -7.52,-22.6 87.47,-42.77 8.8,-1.85 117.1,-10.35 127.27,-11.54l162.52 -31.04c28.26,-132.4 54.13,-326.45 92.34,-443.15 52.27,-159.69 106.44,-40.64 291.2,-187.73l15.08 -101 -70.54 23.17c26.01,-124.88 21.98,-104.27 64.83,-149.56 -40.33,-23.7 -21.67,-4.02 -45.5,-55.19 -243.44,41.04 -744.52,174.24 -912.66,305.98 -64.56,50.59 -271.52,243.35 -309.95,287.93 -91.72,106.4 -151.28,255.91 -169.99,437.04z"/>
   <path class="fil1" d="M3437.61 198.59c-8.84,147.79 89.2,227.52 146.42,329.58 30.74,54.84 125.19,401.28 50.19,486.67l21.5 28.34 128.59 22.34c149.47,-1.2 404.81,-31.05 497.5,54.52 53.25,-25.25 38.61,-34.93 47.67,21.85 161.59,16.18 176.72,-26 253.93,72.48l137.7 70.05 20.57 -62.76c-80.57,-114.18 -92.34,-267.63 -145.58,-391.1 -45.33,-105.11 -171.23,-232.91 -264.85,-325.56 -201.38,-199.35 -519.43,-335.16 -862.15,-376.55 11.67,6.94 27.28,12.91 35.69,19.86l-67.18 50.28z"/>
   <path class="fil2" d="M2017.73 5969.79c39.67,143.68 76.99,537.12 34.32,685.93l-225.14 -11.98c24.01,28.65 184.85,46.83 234.38,50.01l636.09 -1.9c222.79,-0.66 307.21,-468.84 348.07,-764.16 -123.82,-12.69 -89.73,18.49 -194.53,50.77 -82.03,25.21 -190.29,10.35 -280.46,7.47 -200.72,-6.32 -383.4,51.7 -552.73,-16.14z"/>
   <path class="fil3" d="M3533.97 2938.76l325.04 33.26 483.65 28.57c29.28,-55.86 245.35,-490.16 257.77,-538.89 -150.35,-32.06 -165.26,-23.57 -259.01,-99.1l-178.79 24.05 -465.26 -39.27c-26.8,15.79 -56.95,4.87 -89.28,52.18 3.32,213.11 -86.63,333.44 -74.12,539.2z"/>
   <path class="fil4" d="M2798.56 232.77c52.76,315.04 103.17,455.18 101.53,816.52l3.05 626.67 -38.07 630.52c-45.77,122.32 -68.68,481.09 -50.99,615.66l-116.48 516.51 -67.48 50.28 -50.06 417.19 68.81 41.79 75.17 -34.49 31.76 2.96 101.84 -473.88c-88.84,-27.02 -62.62,-154.2 -46.65,-263.48 13.97,-95.47 19.85,-198.82 86.58,-250.82 69.03,-184.68 81.5,-303.28 60.45,-537.3 186.67,-69.74 399.68,-51.26 596.91,-30.65 -27.15,102.33 -26.09,60.23 -62.17,120.15 -68.81,114.05 9.2,197.9 -63.64,459.21l89.55 -2.26 15.3 1.41c-12.51,-205.76 77.44,-326.09 74.12,-539.2 32.33,-47.31 62.48,-36.39 89.28,-52.18l0 -17.55 -46.78 20.65 -94.55 -2.57 -468.36 -13.17 -144.07 -8.01c-12.92,-142.04 7.34,-226.55 17.16,-364.79 12.82,-181.31 -23.13,-186.92 93.39,-280.14l12.03 -3.32c-20.56,-138.73 -23.22,-286.07 -23.44,-428.73 -0.17,-110.47 8.76,-71.56 -9.95,-160.04 -11.1,-52.23 -21.27,-58.73 -28.43,-141.03l-133.55 -726.04 -29.19 -50.19c-52.05,24.81 -35.46,-45.24 -43.07,60.32z"/>
   <path class="fil5" d="M2248.44 2322.71l616.63 -16.23 38.07 -630.52 -327.5 -12.3 -148.9 8.32 -65.8 -3.72c-122.23,31.31 -36.93,-19.81 -89.51,70.49l-22.99 583.96z"/>
   <polygon class="fil5" points="3087.68,2334.74 3556.04,2347.91 3647.67,1701.3 3246.53,1670.12 3066.19,1678.48 3054.16,1681.8 3002.69,2271.94 "/>
   <path class="fil6" d="M1485.65 185.89c23.83,51.17 5.17,31.49 45.5,55.19 -42.85,45.29 -38.82,24.68 -64.83,149.56l70.54 -23.17 70.36 -127.45c20.43,-67.44 62.26,-74.2 139.38,-100.78 86.68,61.96 82.92,-116.04 67.04,101.89l253.53 -17.07 -66.69 306.02 -172.02 37.98 -43.34 506.79 131.87 -6.5 241.45 -22.38 30.03 -619.02 21.18 -148.41 -130.94 -112.32c103.7,-65.54 186.8,-70.41 282.09,-62.14l56.56 -79.51c-181.31,7.12 -340.86,11.63 -520.49,22.87 -101.18,6.32 -142.84,0.57 -247.42,24.85 -140.89,32.68 -106.14,20.52 -163.8,113.6z"/>
   <path class="fil7" d="M3168.96 464.98c-75,98.93 -41.03,201.92 -70.35,126.12 -2.13,-5.48 -9.47,16.63 -15,24.41 110.07,259.06 -74.29,286.96 13.09,409.72l156.29 2.52 381.23 -12.91c75,-85.39 -19.45,-431.83 -50.19,-486.67 -57.22,-102.06 -155.26,-181.79 -146.42,-329.58 -67.08,-93.18 -64.74,-63.37 -189.62,-53.07 51.07,167.65 72.39,78.23 126.03,322.16l-205.06 -2.7z"/>
   <path class="fil8" d="M2365.89 5591.34l-1.37 32.24 -76.68 280.28 -451.86 -60.76 223.05 -147.97c-3.8,-5.57 4.38,-18.49 3.45,-19.95 -1.24,-1.99 -23.21,-2.47 -24.5,-13.62l-178.88 93.4 -112.81 25.47 -119.17 118.34 390.61 71.02c169.33,67.84 352.01,9.82 552.73,16.14 90.17,2.88 198.43,17.74 280.46,-7.47 104.8,-32.28 67.66,-63.46 191.48,-50.77l-106.62 -146.24 -80.62 -7.74 -163.22 -42.19 -31.18 -103.39 -41.21 -23.61 49.79 134.21 -180.38 34.72 -79.82 -289.04c-56.16,35.69 -39.49,-69.78 -43.25,106.93z"/>
   <path class="fil3" d="M2250.96 2912.14l563.12 10c-17.69,-134.57 5.22,-493.34 50.99,-615.66l-616.63 16.23c48.64,155.57 46.83,426.92 2.52,589.43z"/>
   <path class="fil3" d="M1117.59 2361.45l-16.01 -4.03c22.6,60.36 55.72,161.28 83.4,253 120.6,399.54 -11.85,283.64 -37.45,312.69l-50.28 -227.92c-30.83,-73.81 -26.05,-41.75 -57.54,-81.1 18.4,131.42 37.42,243.04 17.65,376.06 91.05,-42.23 30.69,21.71 95.12,-53.38l75.75 -5.97 346.53 16.59 66.06 529.12 96.5 -85.26c-60.68,-173.97 -111.09,-265.87 -85.66,-463.85 32.59,-142.7 27.2,-154.2 -1.42,-291.73 -26.88,-129.26 -40.81,-170.66 -69.82,-289.92 -105.07,26.57 -305.14,13.13 -462.83,15.7z"/>
   <path class="fil7" d="M2610.26 508.45l-168.4 31 4.16 208.91c-160.39,-85.09 -83.89,-200.37 -75.44,-368.24l-41.53 0 -15.56 681.51 256.84 -11.77 67.7 -5.66 262.06 5.09c1.64,-361.34 -48.77,-501.48 -101.53,-816.52l-104.28 -20.43 48.82 323.79 -132.84 -27.68z"/>
   <path class="fil3" d="M2897.57 2928.2l531.55 11.41c72.84,-261.31 -5.17,-345.16 63.64,-459.21 36.08,-59.92 35.02,-17.82 62.17,-120.15 -197.23,-20.61 -410.24,-39.09 -596.91,30.65 21.05,234.02 8.58,352.62 -60.45,537.3z"/>
   <path class="fil3" d="M1651.66 2927.4l539.77 12.16 -75.97 -108.17c45.06,-142.7 52.4,-382.43 5.66,-504.7l-374.34 2.92 -166.36 16.14c29.01,119.26 42.94,160.66 69.82,289.92 28.62,137.53 34.01,149.03 1.42,291.73z"/>
   <polygon class="fil5" points="3650.59,2350.48 3697.37,2329.83 4110.23,2352.95 4208.32,1744.77 3780.64,1702.09 "/>
   <path class="fil5" d="M1746.78 2329.61l374.34 -2.92 50.28 -26.32c0.93,-109.53 34.14,-554.28 -35.64,-605.17l-343.96 9.9c-69.16,116.79 -41.84,120.95 -34.32,295.85 2.48,58.1 5.8,125.68 6.5,183.61 1.55,120.9 21.14,20.12 -17.2,145.05z"/>
   <path class="fil4" d="M2126.21 1693.96l9.55 1.24c69.78,50.89 36.57,495.64 35.64,605.17l-50.28 26.32c46.74,122.27 39.4,362 -5.66,504.7l75.97 108.17 -11.76 211.87c8.23,-31.49 10.61,-66.2 20.21,-103.22 3.18,-12.25 14.86,-61.2 18.97,-73.14l32.11 -62.93c44.31,-162.51 46.12,-433.86 -2.52,-589.43l22.99 -583.96c52.58,-90.3 -32.72,-39.18 89.51,-70.49 -13.98,-15.92 -58.46,-78.89 -54.22,-79.2l14.15 -492.9c-10.61,4.03 -25.07,7.87 -32.32,10.66l-128.25 7.92c-72.79,29.98 -34.23,0.22 -47.89,97.37 -1.5,10.53 1.55,132.58 2.12,151.33 3.36,110.69 8.54,220.58 11.68,330.52z"/>
   <path class="fil9" d="M3581.42 3455.81l422.55 45.42c7.38,-4.78 19.72,-20.3 22.46,-13.93 2.7,6.19 17.47,-11.5 21.05,-15 112.28,-108.74 248.75,-337.01 295.18,-471.71l-483.65 -28.57 -277.59 483.79z"/>
   <path class="fil3" d="M2755.8 3916.38l239.86 -11.67 -32.95 170.34 -17.78 -5.97c-0.04,-94.01 -12.51,-8.4 76.29,-46.21 142.48,-129.97 45.1,-96.58 295.53,-103.66 -14.37,118.83 -16.18,65.54 -63.81,168.89l82.39 -132.58 -18.58 -113.61c159.38,-66.73 10.04,5.09 128.03,-175.03 99.32,-151.68 87.73,15.13 121.12,-202.18l-227.48 -6.64c-105.82,235.71 -124.35,329.81 -243.93,395.44 -28.25,-48.82 -124.35,79.51 18.18,-223.72 43.65,-92.78 38.65,-100.78 15.17,-185.87l-270.2 -1.41 -101.84 473.88z"/>
   <path class="fil10" d="M3673.01 1380.95l45.46 -3.67c-5.49,-61.02 -20.88,-102.37 -8.89,-166.18 44.13,-234.91 2.3,-45.24 69.87,-136.3l1.19 627.29 427.68 42.68 33.34 12.38c82.08,-58.46 76.24,-0.22 100.43,-129.7 1.01,-5.35 1.19,-130.72 1.68,-148.77 3.54,-136.11 12.47,-202.36 -14.29,-336.79 -9.06,-56.78 5.58,-47.1 -47.67,-21.85l-70.4 19.81 -27.77 251.27 -380.71 9.2 -18.62 -334.8 -128.59 -22.34 17.29 337.77z"/>
   <polygon class="fil5" points="2314.15,3441.75 2697.6,3438.65 2814.08,2922.14 2250.96,2912.14 "/>
   <path class="fil11" d="M1737.32 3391.25l-9.16 40.5 392.83 11.68 58.68 -292 11.76 -211.87 -539.77 -12.16c-25.43,197.98 24.98,289.88 85.66,463.85z"/>
   <path class="fil12" d="M1826.91 6643.74l225.14 11.98c42.67,-148.81 5.35,-542.25 -34.32,-685.93l-390.61 -71.02c-0.05,277.45 81.72,580.42 199.79,744.97z"/>
   <path class="fil0" d="M1813.64 241.13c-3.98,89.55 20.92,95.39 -46.87,37.41 -60.54,126.96 -131.12,235.44 -158.05,381.73 -37.59,204.52 -102.33,298.94 -123.25,432.71l79.78 1.77 181.04 -13.62 38.83 -6.28 43.34 -506.79 172.02 -37.98 66.69 -306.02 -253.53 17.07z"/>
   <path class="fil13" d="M3207.66 3415.13l40.46 -64.83c110.42,-176.45 95.79,-179.72 181,-410.69l-531.55 -11.41 -42.8 465.79 352.89 21.14z"/>
   <path class="fil14" d="M3335.33 3955.52l306.28 -15.3 199.31 -217.53 163.05 -221.46 -422.55 -45.42 -15.52 8.89c-33.39,217.31 -21.8,50.5 -121.12,202.18 -117.99,180.12 31.35,108.3 -128.03,175.03l18.58 113.61z"/>
   <path class="fil15" d="M699.16 3533.38l22.82 89.32c121.17,73.41 59.74,38.7 133.59,131.17 4.51,5.66 51.61,58.28 52.27,59.25 37.68,58.11 24.63,35.82 35.2,99.81 167.83,86.68 221.82,-17.73 290.23,96.19 -15.96,-173.58 -15.39,-22.91 64.04,-86.99l112.85 20.34 -149.47 -59.03c67.66,-255.78 -89.77,-273.3 -109.4,-363.64 -3.5,-16.19 -13.45,-18.66 -20.04,-28.13l-80.53 -9.24 -202.53 13.4 -149.03 37.55z"/>
   <path class="fil14" d="M2444.91 4581.93c2.61,14.37 14.78,104.01 18.53,115.72 21.58,67.05 22.6,56.79 44.67,91.23 28.48,-163.71 7.25,-199.53 161.85,-200.01l-17.07 156.5 3.98 18.26c84.2,-114.13 63.46,-126.96 175.52,-187.28l21.89 127.36 83.05 -118.69c155.57,57.58 -24.41,-20.56 90.79,30.16 105.11,-72.61 79.82,-85.53 181.93,-174.99 -78.01,-49.26 -10.18,-18.22 -115.82,-43.86 -88.58,-21.54 -39.76,2.83 -125.77,-29.19l-35.38 -6.59c-15.3,5.26 -37.72,16.49 -93.84,15.92 -33.74,-0.35 -52.93,-14.15 -66.9,-23l-128.82 5.97 -164.42 8.94 -63.59 29.4 29.4 184.15z"/>
   <polygon class="fil16" points="2575.64,1663.66 2903.14,1675.96 2900.09,1049.29 2638.03,1044.2 "/>
   <path class="fil1" d="M1138.24 1099.35l320.21 -1.82 113.65 -523.37c-3.8,-6.85 -45.55,-97.68 -50.32,-105.69 -184.76,147.09 -238.93,28.04 -291.2,187.73 -38.21,116.7 -64.08,310.75 -92.34,443.15z"/>
   <path class="fil9" d="M4341.42 2362.6c93.75,75.53 108.66,67.04 259.01,99.1l35.47 -48.16c61.07,-135.1 140.8,-453.94 129.57,-579.97l-182.24 -0.67 -36.84 -52.89c-59.3,109.36 -77.56,210.46 -107.01,308.76 -13.58,45.29 -29.1,101.23 -40.51,146.02 -20.83,81.64 4.46,77.57 -57.45,127.81z"/>
   <path class="fil17" d="M324.02 1863.24c39.58,91.32 71.16,427.14 87.61,585.81l50.45 -6.28 193.12 -8.98 42.85 -27.42 -73.45 -555.51 -133.02 -21.36c-12.38,2.7 -26.13,4.91 -37.32,7.12 -12.08,2.39 -28.04,5.39 -40.29,7.87 -11.14,2.21 -77.79,16.01 -89.95,18.75z"/>
   <path class="fil18" d="M1034.1 2364.67l67.48 -7.25 16.01 4.03 138.28 -37.95 -81.85 -559.76 152.47 -29.01 -395.87 13.58 1.24 41.17c24.23,171.71 10.79,450.44 102.24,575.19z"/>
   <path class="fil0" d="M64.22 1926.7c11.27,193.47 108.92,272.67 95.08,495.42l57.26 102.77 195.07 -75.84c-16.45,-158.67 -48.03,-494.49 -87.61,-585.81l-37.45 -5.84c-136.74,12.83 -98.44,39.49 -222.35,69.3z"/>
   <path class="fil11" d="M1456.51 3464.83l24.85 -2.17 49.66 -4.99 109.8 18.84 -66.06 -529.12 -346.53 -16.59c50.06,150.4 100.96,286.43 120.82,455.36l83.18 59.61c4.95,3.72 16.23,12.69 24.28,19.06z"/>
   <path class="fil10" d="M3234.24 1643.37l386.98 -8.18 51.79 -254.24 -411.8 -6.5 -8.22 -346.7 -156.29 -2.52 0 52.01 110.29 24.8c-16.27,-8.97 36.44,-125.37 -48.77,0.84 -57.93,85.88 -12.96,-2.3 -25.78,63.24 -19.15,98.04 -1.11,128.11 38.25,190.78 89.42,142.3 56.6,-132.01 63.55,286.47z"/>
   <path class="fil13" d="M773.1 2987.9c178.3,90.74 71.11,204.39 275.99,457.25 -168,2.83 -37.37,53.86 -131.52,-51.34 -1.77,-1.99 -63.99,-92.87 -77.3,-112.15 -57.58,-83.09 -159.64,-240.52 -67.17,-293.76zm-145.01 17.77c74.16,126.08 139.61,389.25 220.1,490.16l202.53 -13.4 146.03 -19.46 -139.39 -472.82 -146.47 -21 -63.1 -4.96c-109.14,3.63 -57.53,7.03 -132.49,21.45 -0.71,0.13 -47.05,13.09 -87.21,20.03z"/>
   <polygon class="fil13" points="3565.9,3464.7 3581.42,3455.81 3859.01,2972.02 3533.97,2938.76 3518.67,2937.35 3344.3,3437.68 "/>
   <path class="fil3" d="M1909.61 3920.76l245.87 -11.36c30.56,-72.48 7.92,-297.71 -12.82,-445.9 -159.78,-14.77 -187.28,-34.62 -339.63,28.09l0.27 6.89c10.83,70.1 23.39,135.72 32.94,205.11 28.75,209.39 -18.35,70.26 73.37,217.17z"/>
   <path class="fil16" d="M4241.66 1757.15l41.83 11.85 262.9 11.01 36.84 52.89 182.24 0.67 13.66 -516.43 -74.47 407.64c-7.87,-72.17 -34.44,-160.31 -112.72,-173.44 -0.04,21.98 2.04,96.8 -3.45,114.58 -38.16,123.34 -10.48,35.25 -71.24,103.21 -74.56,-106.31 -70.14,-37.63 -34.4,-293.32 12.95,-92.73 12.33,-170.7 15.74,-270.91l84.82 9.47c-77.21,-98.48 -92.34,-56.3 -253.93,-72.48 26.76,134.43 17.83,200.68 14.29,336.79 -0.49,18.05 -0.67,143.42 -1.68,148.77 -24.19,129.48 -18.35,71.24 -100.43,129.7z"/>
   <polygon class="fil16" points="3673.01,1380.95 3655.72,1043.18 3634.22,1014.84 3252.99,1027.75 3261.21,1374.45 "/>
   <path class="fil15" d="M462.08 2442.77l166.01 562.9c40.16,-6.94 86.5,-19.9 87.21,-20.03 74.96,-14.42 23.35,-17.82 132.49,-21.45l0 -176.89 -73.85 -39.35 -1.02 -297.62 -117.72 -16.54 -193.12 8.98z"/>
   <polygon class="fil19" points="216.56,2524.89 404.86,3058.43 628.09,3005.67 462.08,2442.77 411.63,2449.05 "/>
   <path class="fil20" d="M1788.35 4593.91l82.56 233.85 -160.04 10.96c44,119.62 -54.44,60.01 70.71,97.78l86.46 -13c231.5,-3.41 771.98,13.84 947.85,-8.14l-20.6 -68.99c-276.52,-25.34 -32.86,28.84 -138.42,-82.74l-3.98 -18.26c-115.6,134.52 5.4,52.76 -132.75,93.49l-12.03 -49.98c-22.07,-34.44 -23.09,-24.18 -44.67,-91.23 -3.75,-11.71 -15.92,-101.35 -18.53,-115.72l-6.19 -1.6c0.27,143.06 17.91,166.99 -55.63,260.38 -102.95,-22.33 -33.47,50.42 -73.85,-66.11l-72.04 -7.03c-39.4,89.81 21.27,52.89 -78.76,72.52 -5.57,-6.89 -13.62,-16.05 -16.18,-21.13l-33.26 -80.8c-41.56,-118.42 19.28,22.91 -24.54,-79.86l-34.32 103.17c-25.34,91.27 23.75,35.15 -41.48,81.32 -78.62,-22.6 -62.75,64.04 -112.36,-77.96 -12.65,-36.22 -2.57,-137.49 -1.07,-178.75l-27.33 63.37 -79.55 -55.54z"/>
   <path class="fil3" d="M1334.94 1418.81c-15.08,189.58 -23.39,1.24 -37.63,207.8l-281.21 3.58c8.49,182.28 0.22,53.42 171.14,74.16 200.5,24.32 -152.48,-35.29 72.61,0.8 92.56,14.81 50.19,4.77 66.64,29.58l42.41 -5.31 20.96 10.93c-35.59,-29.1 -6.36,-25.08 -30.91,-76.51l125.55 -126.03c7.34,7.38 19.28,6.94 22.2,21.98l63.63 116.83c177.82,-283.46 -3.49,-317.73 -5.08,-581.87l-79.78 -1.77c-74.82,136.16 -33.74,111.79 -52.22,311.85l-98.31 13.98z"/>
   <path class="fil3" d="M2320.56 3917.93l271.66 -23.92 -12.16 12.11 50.06 -417.19 67.48 -50.28 -383.45 3.1 13.71 15.74c-11.59,97.6 -3.63,188.61 -12.52,270.11 -18.17,167.11 17.16,79.51 -81.14,147.79 151.28,-28.75 34.58,-20.34 86.36,42.54z"/>
   <path class="fil16" d="M4281.81 1120.04c-92.69,-85.57 -348.03,-55.72 -497.5,-54.52l18.62 334.8 380.71 -9.2 27.77 -251.27 70.4 -19.81z"/>
   <path class="fil5" d="M4162.63 2386.65l178.79 -24.05c61.91,-50.24 36.62,-46.17 57.45,-127.81 11.41,-44.79 26.93,-100.73 40.51,-146.02 29.45,-98.3 47.71,-199.4 107.01,-308.76l-262.9 -11.01 -120.86 617.65z"/>
   <path class="fil17" d="M1552.82 1764.93c-3.36,232.35 -20.47,343.61 27.6,580.82l166.36 -16.14c38.34,-124.93 18.75,-24.15 17.2,-145.05 -0.7,-57.93 -4.02,-125.51 -6.5,-183.61 -7.52,-174.9 -34.84,-179.06 34.32,-295.85l-231.33 -0.53 -7.65 60.36z"/>
   <path class="fil6" d="M698.05 2406.37l202.76 -28.52c-30.64,-213.28 -27.86,-417.76 -117.01,-589.48l-252.38 0.18 -39.84 40.95 133.02 21.36 73.45 555.51z"/>
   <path class="fil14" d="M1896.56 4391.42l10.04 145.18 50.85 55.41 92.69 169.46 34.32 -103.17c34.8,-112.11 -31.97,-38.03 73.98,-78.5 39.41,36.57 26.14,-7.96 54.13,59.26 16.81,40.46 18.09,86.15 24.63,128.51l72.04 7.03 26.31 -170.03 -2.3 -248.58 -136.47 13.8 -177.55 -12.6 -122.67 34.23z"/>
   <path class="fil21" d="M2188.47 426.95l-30.03 619.02 1.86 68.77 128.25 -7.92c7.25,-2.79 21.71,-6.63 32.32,-10.66l-7.38 -34.53 15.56 -681.51 -3.31 -192.46c-153.72,92.65 -66.47,93.98 -137.27,239.29z"/>
   <path class="fil16" d="M1929.37 1668.84l196.84 25.12c-3.14,-109.94 -8.32,-219.83 -11.68,-330.52 -0.57,-18.75 -3.62,-140.8 -2.12,-151.33 13.66,-97.15 -24.9,-67.39 47.89,-97.37l-1.86 -68.77 -241.45 22.38c54.97,210.63 -6.76,372.3 12.38,600.49z"/>
   <path class="fil0" d="M2360.8 104.08l25.3 -2.03 288.9 -19.9 58.55 -8.71c160.44,23.92 220.41,-25.65 328.62,77.83 -46.79,104.36 -0.36,18 -51.65,76.68 -25.48,29.05 -47.37,55.72 -52.36,48.2 -5.13,-7.74 -19.51,16.98 -28.39,26.36l153.84 313c5.53,-7.78 12.87,-29.89 15,-24.41 29.32,75.8 -4.65,-27.19 70.35,-126.12 7.43,-12.2 36.75,-74.56 40.16,-79.29 -48.91,-62.53 -48.38,-63.86 -67.18,-149.56 -15.78,-72.04 3.67,-34.27 -15.83,-94.55l-54.52 -88.09c-93.98,-38.6 -536.77,-43.02 -654.23,-28.92l-56.56 79.51z"/>
   <path class="fil22" d="M4779.13 1317.14l-58.02 -32.72 -137.7 -70.05 -84.82 -9.47c-3.41,100.21 -2.79,178.18 -15.74,270.91 -35.74,255.69 -40.16,187.01 34.4,293.32 60.76,-67.96 33.08,20.13 71.24,-103.21 5.49,-17.78 3.41,-92.6 3.45,-114.58 78.28,13.13 104.85,101.27 112.72,173.44l74.47 -407.64z"/>
   <path class="fil23" d="M1859.1 5754.96l178.88 -93.4c1.29,11.15 23.26,11.63 24.5,13.62 0.93,1.46 -7.25,14.38 -3.45,19.95l79.12 -126.21c27.37,-42.28 11.89,-26.67 35.02,-64.79l46.26 -65.67c-18.13,14.51 -49.71,62.49 -51.26,41.75l-42.32 -555.96 -18.22 -0.18 30.07 578.21c-14.19,129.52 -216.02,213.15 -217.39,168.35 -3.45,-3.98 -83.49,-599.56 -111.18,-738.24l-27.55 4.11 77.52 818.46z"/>
   <path class="fil11" d="M1233.27 4009.12l-45.68 61.16 -71.81 -31.18c-14.73,-6.41 286.55,300.89 319.54,347.5l52.94 -38.48c10.66,6.46 31.75,17.34 41.61,17.82 85.79,4.07 26.89,5.53 134.08,-4.42 -79.51,-156.85 -148.45,-249.9 -225.93,-412.37l-27.86 -6.68 -112.85 -20.34c-79.43,64.08 -80,-86.59 -64.04,86.99z"/>
   <path class="fil10" d="M1929.37 1668.84c-19.14,-228.19 42.59,-389.86 -12.38,-600.49l-131.87 6.5 -38.83 6.28 8.14 593.94 174.94 -6.23z"/>
   <path class="fil18" d="M404.86 3058.43c73.28,144.65 182.77,376.82 294.3,474.95l149.03 -37.55c-80.49,-100.91 -145.94,-364.08 -220.1,-490.16l-223.23 52.76z"/>
   <path class="fil19" d="M281.75 1568.15l4.82 289.25 37.45 5.84c12.16,-2.74 78.81,-16.54 89.95,-18.75 12.25,-2.48 28.21,-5.48 40.29,-7.87 11.19,-2.21 24.94,-4.42 37.32,-7.12l39.84 -40.95 -3.98 -161.94c-17.86,-173.53 8.32,-37.11 -54.03,-120.6l-83.32 -8.4c4.95,-118.16 44.93,-243 -73.98,-244.28l-18.89 0.93 -15.47 313.89z"/>
   <polygon class="fil5" points="1255.87,2323.5 1423.25,2318.15 1368.9,1729.42 1326.49,1734.73 1174.02,1763.74 "/>
   <path class="fil24" d="M1572.1 574.16l-113.65 523.37 -320.21 1.82 3.98 38.07 112.19 6.99 8.85 257.55 71.68 16.85 98.31 -13.98c18.48,-200.06 -22.6,-175.69 52.22,-311.85 20.92,-133.77 85.66,-228.19 123.25,-432.71 26.93,-146.29 97.51,-254.77 158.05,-381.73 -154.87,22.82 -41.57,-102.64 -127.45,119.4 -12.34,32.02 -16.27,57.93 -26.62,86.59 -22.42,61.95 -33.39,75.35 -40.6,89.63z"/>
   <path class="fil14" d="M1410.16 3942.47l27.86 6.68 98.48 8.4c35.56,-68.58 107.64,-39.62 211.74,-38.25 66.2,-217.04 33.08,-74.29 -25.25,-83.84l-200.59 31.13c-7.65,-17.38 -18.58,-44.27 -21.54,-37.72 -16.89,37.06 0.62,-108.26 -142.13,-201.21l11.99 -124.18 -239.47 -11.81c6.59,9.47 16.54,11.94 20.04,28.13 19.63,90.34 177.06,107.86 109.4,363.64l149.47 59.03z"/>
   <polygon class="fil25" points="2426.74,1671.98 2575.64,1663.66 2638.03,1044.2 2570.33,1049.86 2430.68,1139.68 "/>
   <path class="fil13" d="M2643.52 4359.44l128.82 -5.97c98.12,-127.71 68.98,-200.85 190.37,-278.42l32.95 -170.34 -239.86 11.67 -31.76 -2.96c-23.21,119.05 -130.98,376.11 -80.52,446.02z"/>
   <path class="fil15" d="M964.09 1428.01l52.01 202.18 281.21 -3.58c14.24,-206.56 22.55,-18.22 37.63,-207.8l-71.68 -16.85 -8.85 -257.55 -112.19 -6.99 -16.67 283.29 -161.46 7.3z"/>
   <path class="fil3" d="M679.75 1475.15c17.99,144.07 1.68,50.9 66.64,209.83l-218.95 -58.37 3.98 161.94 252.38 -0.18 148.06 1.11 -1.24 -41.17 -90.35 -286.39c-89.24,-57.75 33.74,-252.99 -79.29,-277.22l-10.97 -14.38c-0.48,22.51 3.41,194.71 3.14,196.48 -28.47,164.51 34.85,61.34 -73.4,108.35z"/>
   <path class="fil9" d="M3252.94 4088.1c-59.43,137.62 -106.8,168.7 -164.15,279.26l150.84 -4.64c165.3,-113.39 279.66,-256.8 401.98,-422.5l-306.28 15.3 -82.39 132.58z"/>
   <path class="fil26" d="M1570.33 1676.62l-9.86 27.95 231.33 0.53 343.96 -9.9 -9.55 -1.24 -196.84 -25.12 -174.94 6.23 -8.14 -593.94 -181.04 13.62c1.59,264.14 182.9,298.41 5.08,581.87z"/>
   <path class="fil3" d="M1370.72 3503.48l-11.99 124.18c142.75,92.95 125.24,238.27 142.13,201.21 2.96,-6.55 13.89,20.34 21.54,37.72l200.59 -31.13c-109.8,-409.99 -33.21,-269.49 -191.97,-377.79l-49.66 4.99 -110.64 40.82z"/>
   <polygon class="fil13" points="2333.25,4355.99 2479.1,4368.38 2592.22,3894.01 2320.56,3917.93 "/>
   <polygon class="fil11" points="2019.23,4357.19 2196.78,4369.79 2155.48,3909.4 1909.61,3920.76 "/>
   <path class="fil27" d="M2295.71 5455.18l123.87 -91.63c110.2,264.98 168.57,37.01 199.97,240.97l41.21 23.61 82.65 9.47 106.62 -725.2 -34.14 2.96 -129.48 671.11 -233.62 -185.68 16.23 -474.06 -17.65 0 -19.59 421.87 -136.07 106.58z"/>
   <path class="fil13" d="M3021.22 4022.87l-122.98 303.23 34.84 34.45 35.38 6.59c95.87,-44.13 109.8,-69.65 152.3,-134.44 6.81,-10.39 37.24,-63.01 41.53,-68.36 54.65,-67.97 18.22,-33.08 90.65,-76.24 47.63,-103.35 49.44,-50.06 63.81,-168.89 -250.43,7.08 -153.05,-26.31 -295.53,103.66z"/>
   <path class="fil11" d="M1744.35 4367.67l163.22 -11.23 -128.11 -413.13 -31.22 -24.01c-104.1,-1.37 -176.18,-30.33 -211.74,38.25 57.94,90.04 175.79,294.96 207.85,410.12z"/>
   <path class="fil0" d="M2370.58 380.12c-8.45,167.87 -84.95,283.15 75.44,368.24l-4.16 -208.91 168.4 -31 -7.38 -274.44 -233.58 0.13 4.2 -12.73 -2.92 158.71z"/>
   <path class="fil22" d="M910.89 2969.15l146.47 21c19.77,-133.02 0.75,-244.64 -17.65,-376.06l-3.31 -231.02 -180.34 39.05c20.08,92.6 32.59,179.1 50.37,275.46 8.89,48.07 22.33,98.21 25.91,149.38 11.68,166.27 22.51,34.85 -21.45,122.19z"/>
   <path class="fil3" d="M1511.12 4563.97c77.52,34.49 45.37,27.29 162.3,40.15 59.03,42.99 9.99,1.82 114.93,-10.21l79.55 55.54 27.33 -63.37 62.22 5.93 -50.85 -55.41 -10.04 -145.18 -175.65 10.26 -275.02 3.71 14.24 10.84 50.99 147.74z"/>
   <path class="fil28" d="M1255.87 2323.5l-138.28 37.95c157.69,-2.57 357.76,10.87 462.83,-15.7 -48.07,-237.21 -30.96,-348.47 -27.6,-580.82 -60.4,120.73 -55.63,194.76 -52.98,351.44 -52.22,-132.76 -17.37,-257.51 -109.98,-376.02l-20.96 -10.93 54.35 588.73 -167.38 5.35z"/>
   <path class="fil3" d="M3066.19 1678.48l180.34 -8.36 -12.29 -26.75c-6.95,-418.48 25.87,-144.17 -63.55,-286.47 -39.36,-62.67 -57.4,-92.74 -38.25,-190.78 12.82,-65.54 -32.15,22.64 25.78,-63.24 85.21,-126.21 32.5,-9.81 48.77,-0.84l-110.29 -24.8 -79.46 -49.89 -12.87 -78.67c7.16,82.3 17.33,88.8 28.43,141.03 18.71,88.48 9.78,49.57 9.95,160.04 0.22,142.66 2.88,290 23.44,428.73z"/>
   <path class="fil29" d="M3004.37 948.68l12.87 78.67 79.46 49.89 0 -52.01c-87.38,-122.76 96.98,-150.66 -13.09,-409.72l-153.84 -313c-81.64,-191.93 14.1,12.42 -58.95,-79.87l133.55 726.04z"/>
   <path class="fil30" d="M64.22 1926.7c123.91,-29.81 85.61,-56.47 222.35,-69.3l-4.82 -289.25 -152.22 17.33 -11.18 -257.73 -47.9 -14.94 -6.23 613.89z"/>
   <path class="fil14" d="M3673.01 1380.95l-51.79 254.24 -386.98 8.18 12.29 26.75 401.14 31.18 132.97 0.79 -1.19 -627.29c-67.57,91.06 -25.74,-98.61 -69.87,136.3 -11.99,63.81 3.4,105.16 8.89,166.18l-45.46 3.67z"/>
   <path class="fil3" d="M2360.94 1668.26l65.8 3.72 3.94 -532.3 139.65 -89.82 -256.84 11.77 7.38 34.53 -14.15 492.9c-4.24,0.31 40.24,63.28 54.22,79.2z"/>
   <polygon class="fil28" points="3556.04,2347.91 3650.59,2350.48 3780.64,1702.09 3647.67,1701.3 "/>
   <path class="fil9" d="M2295.71 5455.18c0.4,1.19 33.61,80.62 34.32,82.03 3.05,6.19 14.63,32.99 17.11,27.02 2.52,-6.19 12.65,17.96 18.75,27.11 3.76,-176.71 -12.91,-71.24 43.25,-106.93l-62.35 420.24 373.27 -14.24 -39.13 -111.92c-20.96,-59.92 -40.86,-129.93 -61.38,-173.97 -31.4,-203.96 -89.77,24.01 -199.97,-240.97l-123.87 91.63z"/>
   <path class="fil31" d="M698.05 2406.37l-42.85 27.42 200.86 -11.67 180.34 -39.05 -2.3 -18.4c-91.45,-124.75 -78.01,-403.48 -102.24,-575.19l-148.06 -1.11c89.15,171.72 86.37,376.2 117.01,589.48l-202.76 28.52z"/>
   <path class="fil32" d="M2179.67 3151.43l-58.68 292 -392.83 -11.68c-28.52,100.87 -39,67.97 74.87,59.84 152.35,-62.71 179.85,-42.86 339.63,-28.09l185.2 -6.01 -13.71 -15.74 -63.19 -529.61 -32.11 62.93c-4.11,11.94 -15.79,60.89 -18.97,73.14 -9.6,37.02 -11.98,71.73 -20.21,103.22z"/>
   <path class="fil17" d="M3168.96 464.98l205.06 2.7c-53.64,-243.93 -74.96,-154.51 -126.03,-322.16 124.88,-10.3 122.54,-40.11 189.62,53.07l67.18 -50.28c-8.41,-6.95 -24.02,-12.92 -35.69,-19.86l-397.51 -74.96 54.52 88.09c19.5,60.28 0.05,22.51 15.83,94.55 18.8,85.7 18.27,87.03 67.18,149.56 -3.41,4.73 -32.73,67.09 -40.16,79.29z"/>
   <path class="fil33" d="M2656.87 4763.63c105.56,111.58 -138.1,57.4 138.42,82.74l20.6 68.99 34.14 -2.96 12.25 -62.49 64.88 -3.4c55.23,-75.89 73.54,-94.73 100.96,-231.33 -115.2,-50.72 64.78,27.42 -90.79,-30.16l-83.05 118.69 -21.89 -127.36c-112.06,60.32 -91.32,73.15 -175.52,187.28z"/>
   <path class="fil33" d="M508.16 1494.74l171.59 -19.59c108.25,-47.01 44.93,56.16 73.4,-108.35 0.27,-1.77 -3.62,-173.97 -3.14,-196.48l-218.54 10.44 -23.31 313.98z"/>
   <path class="fil34" d="M2155.48 3909.4l165.08 8.53c-51.78,-62.88 64.92,-71.29 -86.36,-42.54 98.3,-68.28 62.97,19.32 81.14,-147.79 8.89,-81.5 0.93,-172.51 12.52,-270.11l-185.2 6.01c20.74,148.19 43.38,373.42 12.82,445.9z"/>
   <path class="fil4" d="M1640.82 3476.51l-109.8 -18.84c158.76,108.3 82.17,-32.2 191.97,377.79 58.33,9.55 91.45,-133.2 25.25,83.84l31.22 24.01 130.15 -22.55c-91.72,-146.91 -44.62,-7.78 -73.37,-217.17 -9.55,-69.39 -22.11,-135.01 -32.94,-205.11l-0.27 -6.89c-113.87,8.13 -103.39,41.03 -74.87,-59.84l9.16 -40.5 -96.5 85.26z"/>
   <polygon class="fil35" points="2196.78,4369.79 2333.25,4355.99 2320.56,3917.93 2155.48,3909.4 "/>
   <path class="fil4" d="M3207.66 3415.13l-79.82 28.78c23.48,85.09 28.48,93.09 -15.17,185.87 -142.53,303.23 -46.43,174.9 -18.18,223.72 119.58,-65.63 138.11,-159.73 243.93,-395.44l-80.08 -85.87c-2.3,-10.88 -6.81,-14.6 -10.22,-21.89l-40.46 64.83z"/>
   <path class="fil19" d="M1039.71 2614.09c31.49,39.35 26.71,7.29 57.54,81.1l50.28 227.92c25.6,-29.05 158.05,86.85 37.45,-312.69 -27.68,-91.72 -60.8,-192.64 -83.4,-253l-67.48 7.25 2.3 18.4 3.31 231.02z"/>
   <polygon class="fil36" points="1779.46,3943.31 1907.57,4356.44 1744.35,4367.67 1720.91,4401.68 1896.56,4391.42 2019.23,4357.19 1909.61,3920.76 "/>
   <path class="fil37" d="M1057.36 2990.15l139.39 472.82 -146.03 19.46 80.53 9.24 239.47 11.81 110.64 -40.82 -24.85 2.17 -163.93 -10.7c-43.39,-180.16 -132.72,-317.21 -140.1,-517.36 -64.43,75.09 -4.07,11.15 -95.12,53.38z"/>
   <path class="fil35" d="M2479.1 4368.38l164.42 -8.94c-50.46,-69.91 57.31,-326.97 80.52,-446.02l-75.17 34.49 -68.81 -41.79 12.16 -12.11 -113.12 474.37z"/>
   <path class="fil3" d="M847.79 2964.19l63.1 4.96c43.96,-87.34 33.13,44.08 21.45,-122.19 -3.58,-51.17 -17.02,-101.31 -25.91,-149.38 -17.78,-96.36 -30.29,-182.86 -50.37,-275.46l-200.86 11.67 117.72 16.54 1.02 297.62 73.85 39.35 0 176.89z"/>
   <path class="fil38" d="M70.45 1312.81l47.9 14.94 11.18 257.73 152.22 -17.33 15.47 -313.89c-33.52,3.67 -89.41,14.24 -121.78,10.3 -107.51,-12.91 -24.59,38.92 -82.39,-47.72l-22.6 95.97z"/>
   <path class="fil39" d="M840.27 1461.92l137.58 -28.3 -2.13 -303.23c-10.17,1.19 -118.47,9.69 -127.27,11.54 -94.99,20.17 -34.23,-16.98 -87.47,42.77 113.03,24.23 -9.95,219.47 79.29,277.22z"/>
   <polygon class="fil29" points="3697.37,2329.83 3697.37,2347.38 4162.63,2386.65 4283.49,1769 4241.66,1757.15 4208.32,1744.77 4110.23,2352.95 "/>
   <path class="fil12" d="M1456.51 3464.83c-8.05,-6.37 -19.33,-15.34 -24.28,-19.06l-83.18 -59.61c-19.86,-168.93 -70.76,-304.96 -120.82,-455.36l-75.75 5.97c7.38,200.15 96.71,337.2 140.1,517.36l163.93 10.7z"/>
   <path class="fil37" d="M1488.26 4348.12c-57.14,38.21 -9.69,6.28 -42.37,57.27l275.02 -3.71 23.44 -34.01c-32.06,-115.16 -149.91,-320.08 -207.85,-410.12l-98.48 -8.4c77.48,162.47 146.42,255.52 225.93,412.37 -107.19,9.95 -48.29,8.49 -134.08,4.42 -9.86,-0.48 -30.95,-11.36 -41.61,-17.82z"/>
   <path class="fil40" d="M1536.86 367.47l-15.08 101c4.77,8.01 46.52,98.84 50.32,105.69 7.21,-14.28 18.18,-27.68 40.6,-89.63 10.35,-28.66 14.28,-54.57 26.62,-86.59 85.88,-222.04 -27.42,-96.58 127.45,-119.4 67.79,57.98 42.89,52.14 46.87,-37.41 15.88,-217.93 19.64,-39.93 -67.04,-101.89 -77.12,26.58 -118.95,33.34 -139.38,100.78l-70.36 127.45z"/>
   <path class="fil18" d="M773.1 2987.9c-92.47,53.24 9.59,210.67 67.17,293.76 13.31,19.28 75.53,110.16 77.3,112.15 94.15,105.2 -36.48,54.17 131.52,51.34 -204.88,-252.86 -97.69,-366.51 -275.99,-457.25z"/>
   <path class="fil41" d="M1389.86 1740.35c92.61,118.51 57.76,243.26 109.98,376.02 -2.65,-156.68 -7.42,-230.71 52.98,-351.44l7.65 -60.36 9.86 -27.95 -63.63 -116.83c-2.92,-15.04 -14.86,-14.6 -22.2,-21.98l-125.55 126.03c24.55,51.43 -4.68,47.41 30.91,76.51z"/>
   <path class="fil29" d="M3248.12 3350.3c3.41,7.29 7.92,11.01 10.22,21.89l80.08 85.87 227.48 6.64 -221.6 -27.02 174.37 -500.33 -89.55 2.26c-85.21,230.97 -70.58,234.24 -181,410.69z"/>
   <polygon class="fil26" points="977.85,1433.62 964.09,1428.01 1125.55,1420.71 1142.22,1137.42 1138.24,1099.35 975.72,1130.39 "/>
   <path class="fil9" d="M2059.03 5695.13l-223.05 147.97 528.54 -219.52 1.37 -32.24c-6.1,-9.15 -16.23,-33.3 -18.75,-27.11 -2.48,5.97 -14.06,-20.83 -17.11,-27.02 -0.71,-1.41 -33.92,-80.84 -34.32,-82.03l-76.28 -16.72 -46.26 65.67c-23.13,38.12 -7.65,22.51 -35.02,64.79l-79.12 126.21z"/>
   <path class="fil42" d="M2373.5 221.41l-4.2 12.73 233.58 -0.13 7.38 274.44 132.84 27.68 -48.82 -323.79c-68.81,0.53 -135.23,4.47 -200.5,-13.4 -154.64,-42.36 -75.84,-19.24 -107.68,-96.89l-25.3 2.03 12.7 117.33z"/>
   <path class="fil28" d="M3087.68 2334.74l-84.99 -62.8 51.47 -590.14c-116.52,93.22 -80.57,98.83 -93.39,280.14 -9.82,138.24 -30.08,222.75 -17.16,364.79l144.07 8.01z"/>
   <path class="fil19" d="M840.27 1461.92l90.35 286.39 395.87 -13.58c-16.45,-24.81 25.92,-14.77 -66.64,-29.58 -225.09,-36.09 127.89,23.52 -72.61,-0.8 -170.92,-20.74 -162.65,108.12 -171.14,-74.16l-52.01 -202.18 13.76 5.61 -137.58 28.3z"/>
   <path class="fil38" d="M1673.42 4604.12c-89.64,0 -15.22,177.42 7.07,264.06l30.38 -29.46 160.04 -10.96 -82.56 -233.85c-104.94,12.03 -55.9,53.2 -114.93,10.21z"/>
   <path class="fil38" d="M316.11 1253.33c118.91,1.28 78.93,126.12 73.98,244.28l83.32 8.4 34.75 -11.27 23.31 -313.98c-35.73,2.48 -108.61,4.16 -141.73,15.21 -73.32,24.46 -36.4,4.73 -73.63,57.36z"/>
   <path class="fil38" d="M2188.47 426.95c70.8,-145.31 -16.45,-146.64 137.27,-239.29l3.31 192.46 41.53 0 2.92 -158.71 -12.7 -117.33c-95.29,-8.27 -178.39,-3.4 -282.09,62.14l130.94 112.32 -21.18 148.41z"/>
   <path class="fil28" d="M2857.64 3442.5l270.2 1.41 79.82 -28.78 -352.89 -21.14 42.8 -465.79c-66.73,52 -72.61,155.35 -86.58,250.82 -15.97,109.28 -42.19,236.46 46.65,263.48z"/>
   <path class="fil43" d="M2841.63 172.45l29.19 50.19c73.05,92.29 -22.69,-112.06 58.95,79.87 8.88,-9.38 23.26,-34.1 28.39,-26.36 4.99,7.52 26.88,-19.15 52.36,-48.2 51.29,-58.68 4.86,27.68 51.65,-76.68 -108.21,-103.48 -168.18,-53.91 -328.62,-77.83l108.08 99.01z"/>
   <path class="fil44" d="M2694.28 212.34l-19.28 -130.19 -288.9 19.9c31.84,77.65 -46.96,54.53 107.68,96.89 65.27,17.87 131.69,13.93 200.5,13.4z"/>
   <path class="fil15" d="M473.41 1506.01c62.35,83.49 36.17,-52.93 54.03,120.6l218.95 58.37c-64.96,-158.93 -48.65,-65.76 -66.64,-209.83l-171.59 19.59 -34.75 11.27z"/>
   <path class="fil35" d="M2772.34 4353.47c13.97,8.85 33.16,22.65 66.9,23 56.12,0.57 78.54,-10.66 93.84,-15.92l-34.84 -34.45 122.98 -303.23c-88.8,37.81 -76.33,-47.8 -76.29,46.21l17.78 5.97c-121.39,77.57 -92.25,150.71 -190.37,278.42z"/>
   <path class="fil45" d="M2050.14 4761.47l-92.69 -169.46 -62.22 -5.93c-1.5,41.26 -11.58,142.53 1.07,178.75 49.61,142 33.74,55.36 112.36,77.96 65.23,-46.17 16.14,9.95 41.48,-81.32z"/>
   <path class="fil45" d="M2508.11 4788.88l12.03 49.98c138.15,-40.73 17.15,41.03 132.75,-93.49l17.07 -156.5c-154.6,0.48 -133.37,36.3 -161.85,200.01z"/>
   <path class="fil46" d="M2084.46 4658.3c43.82,102.77 -17.02,-38.56 24.54,79.86l33.26 80.8c2.56,5.08 10.61,14.24 16.18,21.13 100.03,-19.63 39.36,17.29 78.76,-72.52 -6.54,-42.36 -7.82,-88.05 -24.63,-128.51 -27.99,-67.22 -14.72,-22.69 -54.13,-59.26 -105.95,40.47 -39.18,-33.61 -73.98,78.5z"/>
   <path class="fil45" d="M2309.24 4774.6c40.38,116.53 -29.1,43.78 73.85,66.11 73.54,-93.39 55.9,-117.32 55.63,-260.38l-103.17 24.24 -26.31 170.03z"/>
   <path class="fil20" d="M2968.46 4367.14c86.01,32.02 37.19,7.65 125.77,29.19 105.64,25.64 37.81,-5.4 115.82,43.86 51.03,-38.69 54.43,38.34 29.58,-77.47l-150.84 4.64c57.35,-110.56 104.72,-141.64 164.15,-279.26 -72.43,43.16 -36,8.27 -90.65,76.24 -4.29,5.35 -34.72,57.97 -41.53,68.36 -42.5,64.79 -56.43,90.31 -152.3,134.44z"/>
   <polygon class="fil3" points="2335.55,4604.57 2438.72,4580.33 2444.91,4581.93 2415.51,4397.78 2479.1,4368.38 2333.25,4355.99 "/>
   <polygon class="fil47" points="1835.98,5843.1 2287.84,5903.86 2364.52,5623.58 "/>
   <polygon class="fil48" points="2855.16,5773.71 2840.17,5653.07 2743.41,5637.6 2660.76,5628.13 2691.94,5731.52 "/>
   <path class="fil45" d="M2694.28 212.34l104.28 20.43c7.61,-105.56 -8.98,-35.51 43.07,-60.32l-108.08 -99.01 -58.55 8.71 19.28 130.19z"/>
   <polygon class="fil49" points="2850.03,4912.4 2912.74,4917.31 2927.16,4846.51 2862.28,4849.91 "/>
  </g>
 </g>
</svg>
