<?xml version="1.0" encoding="UTF-8"?>
<!DOCTYPE svg PUBLIC "-//W3C//DTD SVG 1.1//EN" "http://www.w3.org/Graphics/SVG/1.1/DTD/svg11.dtd">
<!-- Creator: CorelDRAW 2017 -->
<svg xmlns="http://www.w3.org/2000/svg" xml:space="preserve" width="100%" height="100%" version="1.1" style="shape-rendering:geometricPrecision; text-rendering:geometricPrecision; image-rendering:optimizeQuality; fill-rule:evenodd; clip-rule:evenodd"
viewBox="0 0 6000 6000"
 xmlns:xlink="http://www.w3.org/1999/xlink">
 <defs>
  <style type="text/css">
   <![CDATA[
    .fil5 {fill:#AAB6B6}
    .fil0 {fill:#B9C7C9}
    .fil3 {fill:#CDD2D2}
    .fil4 {fill:#D4F0B3}
    .fil6 {fill:#ECE8E4}
    .fil7 {fill:#F8F3EC}
    .fil8 {fill:#FAFBF7}
    .fil2 {fill:#FFFFCC}
    .fil1 {fill:white}
   ]]>
  </style>
 </defs>
 <g id="Слой_x0020_1">
  <metadata id="CorelCorpID_0Corel-Layer"/>
  <g id="_2786467864352">
   <path class="fil0" d="M1963.12 1902.98c-10.37,219.26 -27.6,13.66 49.49,120.34 59.19,81.96 50.22,-24.93 28.9,55.76 -20.69,-15.69 -244.19,-202.35 -175.69,-6.9 -91.45,-28.93 -126.11,-27.28 -205.36,-53.73 -102.15,-34.13 -44.83,-30.5 -161.29,-61.95l-799.83 781 1248.42 -199.91 521.46 624.87c102.82,151.66 -6.72,139.7 229.46,195.62l127.64 1.48c64.95,26.62 -64.9,29.8 129.08,17.58 1.77,-0.12 81.94,-17.54 152.75,-27.15l-161.97 -136.61c-32.78,-126.57 -5.81,-205.77 6.24,-344.31 102.78,-73.79 66.97,-8.96 107,-133.22 -126.78,15.76 -221.77,20.06 -319.27,78.08 -194.8,-49.89 9.27,14.94 -157.35,-68.8 -97.93,-49.23 -19.59,-5.11 -120.92,-61.57 -103.11,-57.41 -170.61,-80.19 -261.57,-129.38l63.02 -430.49c41.58,-84.98 0.44,-3.63 36.44,-23.53 -117.51,0 -95,28.65 -95,-61.12 137.15,17.13 120.11,50.02 96.58,-57.82l69.75 -57.94c-5.52,79.24 -1.05,120.1 31.73,209.12 2.88,7.8 30.72,73.58 35.04,80.1 43.35,65.04 16.76,21.34 75.8,65.37l216.79 23.28 273.85 -147.87 -27.31 -52.17 162.54 418.36 30.34 -173.17c28.08,-82.58 -1.11,-35.58 50.98,-71.44 0,-93.48 -27.03,-69.7 82.27,-69.87l131.73 291.74c63.26,119.52 408.12,879.55 416.42,1016.69 111.56,-49.73 97.12,75.52 84.87,-83.86l1403.14 -42.3 -536.05 282.45c-197.54,94.09 -356.81,171.02 -556.74,273.12l-160.62 -18.36c-36.44,-134.67 1.58,-15.52 -60.34,-76.64l-232.1 -142.71c-53.86,-36.44 -51.65,-38.67 -125.58,-69.5 -90.82,-37.89 -63.41,-36.4 -167.19,-28.77 17.23,111.85 120.82,236.11 219.09,330.7l148.33 257.98c-281.35,61.78 -229.36,-157.65 -537.07,-254.84 42.82,25.92 36.63,54.68 57.61,85.39 -234.64,-55.02 -311.16,15.64 -533.8,-9.74l-156.15 -277.46 -808.57 -64.67c-22.27,449.02 -153.04,368.09 638.68,802.37 120.88,66.32 234.6,140.03 342.6,196.74 140.89,73.95 227.97,143.12 356.38,222.36 14.11,273.45 -61.97,595.16 -131.34,818.96 -474.7,-78.66 -1081.32,173.67 -1362.76,4.83l-914.75 -614.14 25.53 -185.55c62.02,35.66 60.39,-38.09 74.17,57.45 130.81,-52.99 214.57,-108.95 289.65,-221.29 -45.41,-53.12 -103.01,-141.81 -175.84,-193.93 -46.37,112.21 -1.2,74.04 -87.75,167.52l20.5 -97.48c-6.29,-152.25 41.76,-450.88 161,-546.67 -164.02,-151.09 -133.97,-19.77 -298.43,-207.71l-697.25 -659.21 296.9 -1109.55c2.59,-8.29 23.81,-78.7 26.16,-83.36 62.12,-123.81 2.83,-14.12 56.36,-74.33l39.65 55.3c1.1,-0.82 73.88,-36.52 74.07,-36.56 56.31,-14.28 178.38,-12.05 239.77,-12.92 511.62,-7.18 734.98,-233.84 1008.17,-135.74 204.93,73.59 66.05,41.64 91.54,81.68z"/>
   <path class="fil1" d="M5098.6 5033.11c-80.98,-35.87 -70.23,51.46 -12.09,-205.86 18.14,-80.47 32.21,-156 48.91,-245.47 -159.18,-59.6 -811.35,-443.45 -871.93,-543.74 -141.95,-25.09 -24.39,27.33 -70.37,-85.59l53.38 -9.62c199.93,-102.1 359.2,-179.03 556.74,-273.12l536.05 -282.45 -1403.14 42.3c31.64,-191.62 750.82,-862.22 921.48,-1199.19l-1150.31 -67.19c-559.48,-29.3 -313.99,35.83 -372.74,-97.6 134.02,-14.69 148.66,-68.88 244.33,-147.95l697.3 -484.97c-178.43,-60.95 -21.31,28.97 -303.91,-222.11 -99.85,-88.69 -141.85,-154.77 -247.02,-244.86 -174.4,-149.48 -447.2,-377.87 -505,-516.91 1181.31,-337.59 426.99,-213.61 1719.24,-158.43 227.73,517.65 356.76,274.52 531.78,1131.91 52.61,257.77 103.88,234.79 -45.41,391.49 120.49,82.42 277.75,158.02 383.98,251.62 -94.76,364.42 -194.27,745.88 -297.19,1102.04 -130.47,451.62 102.44,361.98 387,924.62l-801.08 941.08z"/>
   <path class="fil2" d="M3388.63 4026.08c113,75.64 286.29,175.97 336.21,290.12 183.81,-65.28 119.72,-60.33 200.47,-108.82l183.22 220.46c-12.33,206.19 -183.32,291.95 -318.69,468.62 -50.02,109.7 -230.9,297.07 -323.97,420.88 -49.88,66.36 -94.57,192.77 -130.19,237.09 -35.09,43.71 -185.05,131.16 -239.25,160.21 69.37,-223.8 145.45,-545.51 131.34,-818.96 -128.41,-79.24 -215.49,-148.41 -356.38,-222.36 -108,-56.71 -221.72,-130.42 -342.6,-196.74 -791.72,-434.28 -660.95,-353.35 -638.68,-802.37l808.57 64.67 156.15 277.46c222.64,25.38 299.16,-45.28 533.8,9.74z"/>
   <path class="fil0" d="M3334.58 2065.58c-55.02,52.7 -62.5,-96.41 -31.45,139.41 -109.3,0.17 -82.27,-23.61 -82.27,69.87 -52.09,35.86 -22.9,-11.14 -50.98,71.44l-30.34 173.17 -162.54 -418.36 84.44 -69.91c193.4,-3.96 36.67,-28.31 206.84,53.41 -106.61,-190.71 -189.27,-136.73 -355.27,-238.38l-17.71 18.98 -160.38 2.56 -96.73 -640.55c103.11,-115.56 173.87,-244.2 289.03,-391.94l271.36 -365.2c4.66,-4.79 14.64,-14.08 21.7,-21.3 57.8,139.04 330.6,367.43 505,516.91 105.17,90.09 147.17,156.17 247.02,244.86 282.6,251.08 125.48,161.16 303.91,222.11l-697.3 484.97c-95.67,79.07 -110.31,133.26 -244.33,147.95z"/>
   <path class="fil3" d="M3936.15 3429.56c12.25,159.38 26.69,34.13 -84.87,83.86 -8.3,-137.14 -353.16,-897.17 -416.42,-1016.69l-131.73 -291.74c-31.05,-235.82 -23.57,-86.71 31.45,-139.41 58.75,133.43 -186.74,68.3 372.74,97.6l1150.31 67.19c-170.66,336.97 -889.84,1007.57 -921.48,1199.19z"/>
   <path class="fil4" d="M4193.12 3952.45c45.98,112.92 -71.58,60.5 70.37,85.59 60.58,100.29 712.75,484.14 871.93,543.74 -16.7,89.47 -30.77,165 -48.91,245.47 -58.14,257.32 -68.89,169.99 12.09,205.86 -58.13,52.16 48.1,39.16 -128.36,51.75l-447.73 -41.76c-209.67,-19.4 -414.7,-35.95 -625.81,-52.33 -99.56,-127.53 -7.69,-23.78 -106.86,-94.31 135.37,-176.67 306.36,-262.43 318.69,-468.62 15.46,-21.34 -58.32,-91.17 -97.15,-180.1 -57.99,-132.89 -40.28,-186.67 -55.78,-330.25 31.1,5.58 136.8,32.15 150.34,34.59 50.98,9.08 3.31,13.62 87.18,0.37z"/>
   <path class="fil5" d="M2204.77 2039.04c0,89.77 -22.51,61.12 95,61.12 -36,19.9 5.14,-61.45 -36.44,23.53l-63.02 430.49c90.96,49.19 158.46,71.97 261.57,129.38 101.33,56.46 22.99,12.34 120.92,61.57 166.62,83.74 281.82,-59.18 476.62,-9.28 -12.86,27.98 -2.21,46.67 -27.22,82.37 -112.08,159.59 65.24,387.03 75.95,531.77 -277.9,104.33 -572.01,102.14 -638.93,-187.53l-521.46 -624.87 -2.45 -52.71 -136.37 -216.87 335.73 -7.72c-103.21,-73.17 -163.02,-101.15 -278.85,-188.11 -68.5,-195.45 155,-8.79 175.69,6.9 21.32,-80.69 30.29,26.2 -28.9,-55.76 -77.09,-106.68 -59.86,98.92 -49.49,-120.34 118.95,47.99 159.9,50.35 241.65,136.06z"/>
   <path class="fil6" d="M1945.31 2484.88l2.45 52.71 -1248.42 199.91 799.83 -781c16.37,81.31 151.55,206.02 214.81,288.36 85.11,110.73 113.92,203.25 231.33,240.02z"/>
   <path class="fil7" d="M2301.35 1981.22c23.53,107.84 40.57,74.95 -96.58,57.82 -81.75,-85.71 -122.7,-88.07 -241.65,-136.06 -25.49,-40.04 113.39,-8.09 -91.54,-81.68 -273.19,-98.1 -496.55,128.56 -1008.17,135.74 -61.39,0.87 -183.46,-1.36 -239.77,12.92 -0.19,0.04 -72.97,35.74 -74.07,36.56l-39.65 -55.3c108.97,-73.01 1217.6,-260.21 1461.36,-282 74.22,113.12 202.14,229.09 330.07,312z"/>
   <path class="fil8" d="M2977 2101.11l27.31 52.17 -273.85 147.87 -216.79 -23.28 -37.68 -74.08c206.75,-51.09 265.22,-179.03 419.31,-338.58l17.71 -18.98c166,101.65 248.66,47.67 355.27,238.38 -170.17,-81.72 -13.44,-57.37 -206.84,-53.41l-84.44 69.91z"/>
   <path class="fil1" d="M2513.67 2277.87c-59.04,-44.03 -32.45,-0.33 -75.8,-65.37 -4.32,-6.52 -32.16,-72.3 -35.04,-80.1 -32.78,-89.02 -37.25,-129.88 -31.73,-209.12l363.82 -55.51 160.38 -2.56c-154.09,159.55 -212.56,287.49 -419.31,338.58l37.68 74.08z"/>
   <path class="fil5" d="M4246.5 3942.83l-53.38 9.62c-83.87,13.25 -36.2,8.71 -87.18,-0.37 -13.54,-2.44 -119.24,-29.01 -150.34,-34.59 15.5,143.58 -2.21,197.36 55.78,330.25 38.83,88.93 112.61,158.76 97.15,180.1l-183.22 -220.46c-80.75,48.49 -16.66,43.54 -200.47,108.82 -49.92,-114.15 -223.21,-214.48 -336.21,-290.12 -20.98,-30.71 -14.79,-59.47 -57.61,-85.39 307.71,97.19 255.72,316.62 537.07,254.84l-148.33 -257.98c83.33,-1.32 319.22,1.28 305.78,-89.72 61.92,61.12 23.9,-58.03 60.34,76.64l160.62 18.36z"/>
   <path class="fil1" d="M1865.82 2072.18c115.83,86.96 175.64,114.94 278.85,188.11l-335.73 7.72 136.37 216.87c-117.41,-36.77 -146.22,-129.29 -231.33,-240.02 -63.26,-82.34 -198.44,-207.05 -214.81,-288.36 116.46,31.45 59.14,27.82 161.29,61.95 79.25,26.45 113.91,24.8 205.36,53.73z"/>
   <path class="fil5" d="M4025.54 3847.83c13.44,91 -54.44,316.25 -137.77,317.57 -256.1,-300.73 -491.13,-590.98 -387.1,-558.55 103.78,-7.63 76.37,-9.12 167.19,28.77 73.93,30.83 71.72,33.06 125.58,69.5l232.1 142.71z"/>
   <path class="fil4" d="M791.27 5214.33c29.09,-116.1 91.68,-511.84 173.91,-582.28l168.54 -110.73c86.55,-93.48 295.37,665.81 341.74,553.59l627.54 151.84 44.5 331.6c-75.07,112.34 -439.13,161.66 -871.21,-145.97 -13.78,-95.54 -423,-162.4 -485.02,-198.05z"/>
   <path class="fil5" d="M3108.15 3349.99c0,0 0,0 0,0z"/>
  </g>
 </g>
</svg>
