<?xml version="1.0" encoding="UTF-8"?>
<!DOCTYPE svg PUBLIC "-//W3C//DTD SVG 1.1//EN" "http://www.w3.org/Graphics/SVG/1.1/DTD/svg11.dtd">
<!-- Creator: CorelDRAW 2017 -->
<svg xmlns="http://www.w3.org/2000/svg" xml:space="preserve" width="100%" height="100%" version="1.1" style="shape-rendering:geometricPrecision; text-rendering:geometricPrecision; image-rendering:optimizeQuality; fill-rule:evenodd; clip-rule:evenodd"
viewBox="0 0 3500 2500"
 xmlns:xlink="http://www.w3.org/1999/xlink">
 <defs>
  <style type="text/css">
   <![CDATA[
    .fil3 {fill:#AAB6B6}
    .fil2 {fill:#B5C9AD}
    .fil1 {fill:#D4F0B3}
    .fil0 {fill:white}
   ]]>
  </style>
 </defs>
 <g id="Слой_x0020_1">
  <metadata id="CorelCorpID_0Corel-Layer"/>
  <g id="_2786363759136">
   <path class="fil0" d="M1516.37 2379.92c592.3,207.49 700.96,52.67 1170.82,-245.59l-289.32 -21.43c-7.83,-11.57 -14.92,-22.26 -21.4,-32.15l-0.01 0c-4.85,-7.42 -9.36,-14.4 -13.56,-20.99l0 -0.01 -7.99 -12.64c-2.54,-4.04 -4.95,-7.92 -7.24,-11.65l0 -0.01 -3.36 -5.48 0 0 -3.2 -5.27 -3.05 -5.05 -0.01 0 -5.67 -9.52 0 0 -2.65 -4.49 0 0 -2.54 -4.31 -2.43 -4.15 0 -0.01 -2.33 -4 -2.25 -3.86 -0.01 0 -2.16 -3.72 0 -0.01 -2.11 -3.6 -2.05 -3.48 0 -0.01 -1.99 -3.38 -1.95 -3.29 0 -0.01 -1.92 -3.2 -0.01 0 -1.9 -3.12 -0.01 -0.01 -1.88 -3.06 -1.89 -3 -1.89 -2.96 -1.91 -2.92 -1.93 -2.89 -1.97 -2.87 0 0 -2.01 -2.86 0 0 -2.06 -2.87 -2.12 -2.87 -2.19 -2.89 -0.01 0 -2.28 -2.92 -2.35 -2.95 -0.01 0 -2.46 -3.01 -2.57 -3.06 0 0 -2.68 -3.12 -0.01 -0.01 -2.81 -3.2 0 -0.01 -2.95 -3.28 -3.09 -3.38 0 -0.01 -3.25 -3.48 0 -0.01 -3.42 -3.6 -3.57 -3.72 -0.01 0 -3.76 -3.86 -0.01 -0.01 -3.95 -3.99 0 -0.01 -4.15 -4.14 -0.01 -0.01 -4.36 -4.31 -4.58 -4.48 -0.01 -0.01 -4.8 -4.66 -0.01 0 -5.04 -4.86 -0.02 0 -5.28 -5.05 -0.01 -0.01 -5.54 -5.26 -0.02 0 -5.8 -5.47 -0.01 -0.01 -6.09 -5.71 -0.01 0 -6.36 -5.95 -0.01 0 -6.66 -6.19 -0.01 0 -6.96 -6.45 -0.01 0 -7.27 -6.72 -748.38 39.23 2 -147.79 0.01 -0.01c112.4,-233.29 242.09,-382.36 459.59,-606.14l423.1 -62.43c-39.76,-110.31 -199.98,-504.04 -233.31,-548.47 3.81,-67.27 10.87,-111.44 20.53,-139.22l-0.06 -0.09 -341.53 -332.88 -676.67 74.23c-18.22,-21.27 -391.39,474.52 -420.03,446.26 -120.58,29.19 -81.7,4.4 -181.84,74.75 -1.66,1.22 -88.02,85.18 -97.5,93.35 -154.72,133.63 -107.86,30.85 -209.84,234.58l218.18 971.34c185.35,84.98 454.58,139.58 565.54,212.27 146.22,95.82 -12.5,144.64 562.57,247.57z"/>
   <path class="fil1" d="M2310.34 1046.23c9.02,8.17 22.73,21.09 26.73,24.64 3.77,3.28 20.29,18.67 24.99,22.63 4.4,3.78 18.87,16.98 23.78,21.06l145.53 108.59c24.27,202.76 26.39,129.38 -21.09,284.22l272.14 -37.26c140.57,-48.87 237.7,-113.19 412.55,-203.02l-133.58 -728.19c1.25,-10.15 11.49,-27.49 16.47,-41.47 -530.73,-113.25 -453.02,-159.36 -678.5,-196.64 -127.24,322.23 -296.97,-251.85 -322.34,196.97 33.32,44.43 193.55,438.17 233.32,548.47z"/>
   <path class="fil2" d="M2687.19 2134.34c254.28,-1.86 94.82,-125.61 52.2,-336.29 -35.68,-176.54 -22.24,-196.12 43.03,-327.94l-272.14 37.26c-391.25,182.5 -626.26,21.32 -1082.65,207.44l-2 147.79 748.38 -39.23c158.73,146.19 98.63,104.43 223.86,289.52l289.32 21.45z"/>
   <path class="fil3" d="M2510.28 1507.37c47.48,-154.84 45.36,-81.46 21.09,-284.22l-145.53 -108.59c-4.91,-4.08 -19.38,-17.28 -23.78,-21.06 -4.7,-3.96 -21.22,-19.35 -24.99,-22.63 -4,-3.55 -17.71,-16.47 -26.73,-24.64l-153.34 -379.91 -612.69 141.13 153.81 441.67 -270.49 465.69c456.39,-186.12 691.4,-24.94 1082.65,-207.44z"/>
  </g>
 </g>
</svg>
