<?xml version="1.0" encoding="UTF-8"?>
<!DOCTYPE svg PUBLIC "-//W3C//DTD SVG 1.1//EN" "http://www.w3.org/Graphics/SVG/1.1/DTD/svg11.dtd">
<!-- Creator: CorelDRAW 2017 -->
<svg xmlns="http://www.w3.org/2000/svg" xml:space="preserve" width="100%" height="100%" version="1.1" style="shape-rendering:geometricPrecision; text-rendering:geometricPrecision; image-rendering:optimizeQuality; fill-rule:evenodd; clip-rule:evenodd"
viewBox="0 0 9500 7500"
 xmlns:xlink="http://www.w3.org/1999/xlink">
 <defs>
  <style type="text/css">
   <![CDATA[
    .fil2 {fill:#AAB6B6}
    .fil1 {fill:#AEBAC5}
    .fil7 {fill:#B9C7C9}
    .fil5 {fill:#CDD2D2}
    .fil4 {fill:#D4F0B3}
    .fil3 {fill:#ECE8E4}
    .fil6 {fill:#FAFBF7}
    .fil0 {fill:white}
   ]]>
  </style>
 </defs>
 <g id="Слой_x0020_1">
  <metadata id="CorelCorpID_0Corel-Layer"/>
  <g id="_2786467831008">
   <path class="fil0" d="M6237.01 2210.87c-228.29,-50.6 -442.79,-128.42 -659.91,-194.75l-707.18 -277.32 -15.4 -185.52c-2.86,-60.47 5.2,-53.78 -0.09,-112.4l-40.41 -578.67c-446.09,-193.66 -894.41,-348.32 -1321.38,-519.28l-813.24 420.43c-321.05,161.79 -234.65,124.03 -220.2,185.97l1018.59 1397.98 119.86 143.3 658.47 -1141.55 625.86 826.47 -52.58 84 37.19 113.23 -946.65 552.13c-119.66,97.44 -62.9,152.15 -121.31,309.27l-8.08 -606.98c-138.64,-73.82 -123.54,-48.11 -182.22,-138.34l-59.09 -12.79c-243.29,-32.44 -899.54,-841.49 -1118.76,-1060.93 -107.25,-118.51 -166.55,-60.82 -403.83,-22.28 -122.44,19.89 -243.07,26.98 -366.03,44.34 -218.75,30.87 -534.55,87.49 -725.99,92.44l-215.27 319.19c-21.6,85.13 -268.86,475.68 -338.49,595.81 -59.92,103.31 -118.86,199.73 -181.86,307.4 -57.88,98.82 -171.22,221.28 -137.99,311.59 66.4,-16.78 713.93,16.25 818.44,22.85 134.91,8.51 269.31,-4.05 408.13,9.61 127.02,12.46 297.94,104.36 419.57,177.52l36.53 -1.25c103.05,-327.41 -36.09,-341.54 103.29,-583.93 33.47,171.18 -77.17,656.69 -88.23,884 -4.84,100.21 -30.06,39.21 23.46,104.95 163.16,-77.81 316.85,-75.88 503.18,-101.56 27.97,130.52 17.51,225.88 -37.35,333.53 51.63,98.56 -13.45,247.01 -10.7,373.6 2.24,102.59 29.95,87.35 23.78,204.28 -4.67,89.22 -20.78,115.3 -26.95,212.08 116.35,-110.5 533.14,-323.55 712.41,-381.36 83.69,45.61 418.16,67.86 533.83,71.29l252.89 16.09c55.8,-5.32 23.67,-0.43 95.81,-11.67 -107.33,-150.86 -213.39,-340.57 -282.56,-508.2l59.09 -69.81 -22.7 -65.36c137.27,-81.7 485.03,-276.7 588.38,-302.65 32.09,78.51 148.64,871.8 119.85,998.41l58.55 67.8 22.82 -10.25c205.71,-149.93 514.25,-282.65 736.9,-401.26 260.19,-138.57 485.73,-252.15 756.79,-419.65 -2.69,80.12 12.38,62.05 -57.63,181.86 -34.5,59.1 -66.99,114.99 -102.01,174.71l88.97 92.75c-85.01,226.43 -183.38,130.68 -67.1,721.69l1474.4 438.26c251.7,61.64 707.91,227.24 885.34,243.73l1152 -1425.92c77.57,-85.24 -156.49,-235.91 -334.22,-400.77 -207.52,-192.48 -1178.85,-1147.33 -1266.65,-1162.56l-1088.46 248.92 -313.86 -584.47z"/>
   <path class="fil1" d="M4038.86 6445.67c-144.12,-85.22 -262,-154.31 -394.06,-268.76l-5.67 52.32c7.41,-3.17 -7.51,20.03 -7.79,30.51l-31.32 78.11 -68.08 -31.66 -67.75 -45.22c142.91,-140.17 143.13,-181.39 187.79,-345.62 32.35,-118.98 100.24,-218.16 90.51,-335.89 -94.75,13.87 -17.71,56.27 -51.83,-232.73 -13.61,-115.2 -12.91,-168.44 -42.43,-277.99l-142.67 51.75c-73.39,40.71 -85.33,53.52 -146.98,107.88 124.43,-107.84 5.81,21.34 13.21,-76.73l-42.77 38.93 -78.85 -17.25c-213.2,-64.43 -711.71,-327.38 -804.83,-343.93l-61.61 158.24c-18.16,53.83 -40.22,111.32 -59.65,160 -23.06,57.72 -96.48,248.51 -119.35,281.09l248.25 -588.43c-110.26,-111.04 -79.71,-96.7 -218.81,-141 6.17,-96.78 22.28,-122.86 26.95,-212.08 6.17,-116.93 -21.54,-101.69 -23.78,-204.28 -2.75,-126.59 62.33,-275.04 10.7,-373.6 -184.77,-43.15 -315.05,-114.98 -465.83,-231.97 -53.52,-65.74 -28.3,-4.74 -23.46,-104.95 11.06,-227.31 121.7,-712.82 88.23,-884 -139.38,242.39 -0.24,256.52 -103.29,583.93l-36.53 1.25c27.34,59.62 39.81,-26.33 38.22,110.44l-63.2 227.05c-34.58,190.9 44.37,-58.48 -20.48,317.51 -21.3,123.51 -0.21,152.26 -59.49,433.42l-201.55 109.22c186.05,397.93 178.06,213.34 282.64,408.62 160.01,298.88 88.04,87.6 211.07,284.85l202.25 295.05c148.73,175.69 69.29,84.67 151.65,87.36 56.21,107.15 253.34,62.47 278.13,316.5l28.64 -39.78c78.91,101.96 152.28,160.43 73.69,277.71 -4.12,6.09 -15.7,13.42 -23.42,20.31l23.81 -21.01c158.12,108.77 106.77,101.58 168.59,299.53 38.47,123.13 121.84,167.87 166.52,335.63 112.14,-7 50.07,5.3 149.09,11.54 55.12,3.45 79.1,-4.86 138.09,-8.18 108.87,-6.13 218.14,-1.17 288.74,15.74l541.88 -12.86 542.61 607.77c243.81,-125.06 772.16,-150.54 1062.75,-270.54l2.93 -5.44c161.76,-152.38 46.27,-28.76 56.21,-116.98 -179.45,104.26 -7.38,69.19 -257.24,-13.34l-1450.43 -498.04z"/>
   <path class="fil2" d="M4372.54 4503.58c103.52,51.53 100.74,13.79 163.06,97.9 15.05,20.28 98.45,166.33 109.44,193.86 104.28,91.73 60.15,30.43 25.02,92.87 146.49,-30.01 65.21,11.57 188.02,-63.54l-266.13 -259.48c145.41,14.75 403.81,78.01 533.02,51.01 31.35,71 34.38,96.63 84.39,178.23l201.06 -93.03 132.29 132.07 90.43 356.57c108.75,88.32 326.89,225.2 458.8,299.73 175.11,98.97 307.51,253.33 444.48,412.09l-789.89 1055.19c-9.94,88.22 105.55,-35.4 -56.21,116.98l-2.93 5.44 430.26 -88.77 34.73 -112.02c129.09,-224.75 227.03,-572.09 317.85,-806.32l182.46 191.97 2171.31 -479.1 416.2 -1675.48 -1152 1425.92c-177.43,-16.49 -633.64,-182.09 -885.34,-243.73l-1474.4 -438.26c-116.28,-591.01 -17.91,-495.26 67.1,-721.69l-88.97 -92.75c35.02,-59.72 67.51,-115.61 102.01,-174.71 70.01,-119.81 54.94,-101.74 57.63,-181.86 -271.06,167.5 -496.6,281.08 -756.79,419.65 -222.65,118.61 -531.19,251.33 -736.9,401.26z"/>
   <path class="fil3" d="M5542.71 4833.47c-641.01,566.12 -824.18,241.58 -1262.87,441.29l-130.85 88.72 -158.22 -169.65c-75.69,-8.66 19.58,-97.07 -93.91,28.77 81.22,69.44 65.64,51.24 73.01,136.83l68.99 1086.24 1450.43 498.04c249.86,82.53 77.79,117.6 257.24,13.34l789.89 -1055.19c-136.97,-158.76 -269.37,-313.12 -444.48,-412.09 -131.91,-74.53 -350.05,-211.41 -458.8,-299.73l-90.43 -356.57z"/>
   <path class="fil4" d="M61.02 3063.61l557.88 624.37 94.51 1410.21 1287.32 505.47c363.62,142 310.95,66.95 503.09,442.17 100.79,196.77 251.49,528.05 376.18,690.21l84.23 -0.04c-44.68,-167.76 -128.05,-212.5 -166.52,-335.63 -61.82,-197.95 -10.47,-190.76 -168.59,-299.53l-23.81 21.01c7.72,-6.89 19.3,-14.22 23.42,-20.31 78.59,-117.28 5.22,-175.75 -73.69,-277.71l-28.64 39.78c-24.79,-254.03 -221.92,-209.35 -278.13,-316.5 -82.36,-2.69 -2.92,88.33 -151.65,-87.36l-202.25 -295.05c-123.03,-197.25 -51.06,14.03 -211.07,-284.85 -104.58,-195.28 -96.59,-10.69 -282.64,-408.62l201.55 -109.22c59.28,-281.16 38.19,-309.91 59.49,-433.42 64.85,-375.99 -14.1,-126.61 20.48,-317.51l63.2 -227.05c1.59,-136.77 -10.88,-50.82 -38.22,-110.44 -121.63,-73.16 -292.55,-165.06 -419.57,-177.52 -138.82,-13.66 -273.22,-1.1 -408.13,-9.61 -104.51,-6.6 -752.04,-39.63 -818.44,-22.85z"/>
   <path class="fil2" d="M4431.28 4489.53l-38.27 -0.56 -306.11 -236.89c-74.69,-5.99 -89.78,266.98 -128.25,301.09 21.36,96.07 -2.49,52.49 -91.31,127.55l-495.55 470.92c-7.4,98.07 111.22,-31.11 -13.21,76.73 61.65,-54.36 73.59,-67.17 146.98,-107.88l142.67 -51.75c29.52,109.55 28.82,162.79 42.43,277.99 34.12,289 -42.92,246.6 51.83,232.73 28.92,-63.98 46.45,-110.46 76.44,-178.07 32.08,-72.4 28.53,-100.35 77.93,-178.79 -11.56,-106.83 -9,-77.9 47.21,-173.52 93.54,43.36 238.78,94.93 333.05,148.13l2.72 77.55c438.69,-199.71 621.86,124.83 1262.87,-441.29l-132.29 -132.07 -201.06 93.03c-50.01,-81.6 -53.04,-107.23 -84.39,-178.23 -129.21,27 -387.61,-36.26 -533.02,-51.01l266.13 259.48c-122.81,75.11 -280.31,-365.15 -426.8,-335.14z"/>
   <path class="fil5" d="M3477.79 2347.31l71.45 128.74 59.09 12.79 1090.07 -239.57c111.05,-19.2 -4.46,-39.24 131,10.26l52.58 -84 -625.86 -826.47 -658.47 1141.55 -119.86 -143.3z"/>
   <path class="fil4" d="M2234.17 4699.29c139.1,44.3 108.55,29.96 218.81,141l-248.25 588.43c22.87,-32.58 96.29,-223.37 119.35,-281.09 19.43,-48.68 41.49,-106.17 59.65,-160l61.61 -158.24c93.12,16.55 591.63,279.5 804.83,343.93l78.85 17.25c-59.16,-89.35 -63.39,-135.48 -94.02,-218.57 -49.43,-133.88 -238.38,-509.85 -206.98,-597.8l-81.44 -56.27c-179.27,57.81 -596.06,270.86 -712.41,381.36z"/>
   <path class="fil6" d="M2946.58 4317.93l81.44 56.27c-31.4,87.95 157.55,463.92 206.98,597.8 30.63,83.09 34.86,129.22 94.02,218.57l42.77 -38.93 495.55 -470.92c-14.12,-67.4 -58.86,-198.45 -38.23,-287.08 -72.14,11.24 -40.01,6.35 -95.81,11.67l-252.89 -16.09c-115.67,-3.43 -450.14,-25.68 -533.83,-71.29z"/>
   <path class="fil2" d="M3608.33 2488.84c58.68,90.23 43.58,64.52 182.22,138.34l8.08 606.98c58.41,-157.12 1.65,-211.83 121.31,-309.27l946.65 -552.13 -37.19 -113.23c-135.46,-49.5 -19.95,-29.46 -131,-10.26l-1090.07 239.57z"/>
   <path class="fil4" d="M3605.64 3815.63l479 474.05c92.74,99.74 131.27,169.65 238.39,216.67 5.86,2.55 17.93,4.57 26.69,7.48l-58.55 -67.8c28.79,-126.61 -87.76,-919.9 -119.85,-998.41 -103.35,25.95 -451.11,220.95 -588.38,302.65l22.7 65.36z"/>
   <path class="fil7" d="M2430.48 1415.12c219.22,219.44 875.47,1028.49 1118.76,1060.93l-71.45 -128.74 -1018.59 -1397.98c-39.48,140.54 -40.79,85.99 -17.27,231.55 10.14,62.67 16.32,151.84 -11.45,234.24z"/>
   <path class="fil5" d="M3742.49 5579.46c9.73,117.73 -58.16,216.91 -90.51,335.89 -44.66,164.23 -44.88,205.45 -187.79,345.62l67.75 45.22c-27.1,-82.42 -77.85,21.47 28.71,-132.06l70.69 85.61c0.28,-10.48 15.2,-33.68 7.79,-30.51l5.67 -52.32c132.06,114.45 249.94,183.54 394.06,268.76l-68.99 -1086.24c-7.37,-85.59 8.21,-67.39 -73.01,-136.83 -49.4,78.44 -45.85,106.39 -77.93,178.79 -29.99,67.61 -47.52,114.09 -76.44,178.07z"/>
   <path class="fil2" d="M3605.64 3815.63l-59.09 69.81c69.17,167.63 175.23,357.34 282.56,508.2 -20.63,88.63 24.11,219.68 38.23,287.08 88.82,-75.06 112.67,-31.48 91.31,-127.55 38.47,-34.11 39.95,-8.23 114.64,-2.24l21.65 -57.83c-4.86,-26.79 -16.93,-80.45 -18.6,-100.54 -10.01,-119.25 -6.09,-32.18 8.3,-102.88l-479 -474.05z"/>
   <path class="fil7" d="M1782.21 3677.36c150.78,116.99 281.06,188.82 465.83,231.97 54.86,-107.65 65.32,-203.01 37.35,-333.53 -186.33,25.68 -340.02,23.75 -503.18,101.56z"/>
   <path class="fil1" d="M3896.86 5222.6c113.49,-125.84 18.22,-37.43 93.91,-28.77l158.22 169.65 130.85 -88.72 -2.72 -77.55c-94.27,-53.2 -239.51,-104.77 -333.05,-148.13 -56.21,95.62 -58.77,66.69 -47.21,173.52z"/>
   <path class="fil4" d="M3531.94 6306.19l68.08 31.66 31.32 -78.11 -70.69 -85.61c-106.56,153.53 -55.81,49.64 -28.71,132.06z"/>
  </g>
 </g>
</svg>
