<?xml version="1.0" encoding="UTF-8"?>
<!DOCTYPE svg PUBLIC "-//W3C//DTD SVG 1.1//EN" "http://www.w3.org/Graphics/SVG/1.1/DTD/svg11.dtd">
<!-- Creator: CorelDRAW 2017 -->
<svg xmlns="http://www.w3.org/2000/svg" xml:space="preserve" width="100%" height="100%" version="1.1" style="shape-rendering:geometricPrecision; text-rendering:geometricPrecision; image-rendering:optimizeQuality; fill-rule:evenodd; clip-rule:evenodd"
viewBox="0 0 5000 5000"
 xmlns:xlink="http://www.w3.org/1999/xlink">
 <defs>
  <style type="text/css">
   <![CDATA[
    .fil10 {fill:#00CCFF}
    .fil1 {fill:#1D2E5F}
    .fil3 {fill:#212528}
    .fil2 {fill:#30468A}
    .fil4 {fill:#484B58}
    .fil5 {fill:#587499}
    .fil7 {fill:#849CBC}
    .fil9 {fill:#868B96}
    .fil6 {fill:#8DB3E9}
    .fil0 {fill:#99FFFF}
    .fil8 {fill:#B7BBB9}
   ]]>
  </style>
 </defs>
 <g id="Слой_x0020_1">
  <metadata id="CorelCorpID_0Corel-Layer"/>
  <g id="_2786467822688">
   <circle class="fil0" transform="matrix(-1.39938 -0.942582 0.942582 -1.39938 2500.13 2494.57)" r="1468.86"/>
   <path class="fil1" d="M2112.47 704.8l115.03 -51.49 -129.91 127.31 -284.79 -14.32 -362.54 360.99 662.21 -422.49zm121.43 391.73l-185.45 -205.56c223.45,-33.41 178.22,-19.53 185.45,205.56zm-1015.72 2135.04c304.42,324.84 -24.59,687.21 -371.55,460.34 93.7,-281.08 101.6,-354.26 371.55,-460.34zm-426.97 43.13c-312.31,-189.77 -471.74,-671.43 -136.35,-842.72 86.81,273.9 -157.26,194.73 136.35,842.72zm400.59 858.19c1171.39,-1565.16 -497.83,-1752.46 1159.17,-2168.8 409.43,-102.77 269.64,-271.05 737.44,-358.46 -130.19,-224.92 -112.64,-648.75 -56.17,-899.85l-27.24 -233.67 -144.15 -101.58c-1644.86,-748.55 -3669.29,1714.03 -2141.22,3495.1l78.55 151.9 149.39 126.94 79.77 -119.19 164.46 107.61z"/>
   <path class="fil2" d="M2839.53 3712.15l-121.97 38.65 -491.02 -391.4c-165.16,-88.71 -186.27,-37.99 -43.14,-140.29l6.47 -261.02 -75.3 -394.5c183.09,-186 536.19,-327.12 792.68,-379.77 270.77,107.95 419.86,200.83 506.84,483.1 187.35,41.98 154.81,-0.53 25.06,149.12l36.13 307.05 14.59 97.91 -43.73 253.67c-170.57,128.06 -398.03,243.7 -606.61,237.48zm-216.74 667.49c182.55,44.56 1218.15,-410.06 1358.78,-578.89 106.05,-127.47 95.28,-1243.36 27.88,-1426.19 -421.11,-242.87 -542.99,-490.74 -921.04,-768.93 -467.8,87.41 -328.01,255.69 -737.44,358.46 -1657,416.34 12.22,603.64 -1159.17,2168.8l106.09 90.73 230.41 -80.51c-52.69,-249.18 -181.04,-151.72 -5.88,-401.17 292.39,117.63 216.24,176.65 390.93,418.9 420.09,-24.43 338.24,-28.99 709.44,218.8z"/>
   <path class="fil1" d="M4051.26 2241.64c-87.38,-58.86 -72.01,-21.29 -5.55,-119.97l-40.52 -178.08 -19.46 -631.35 -665.75 -605.44 -196.3 -203.07 -262.83 -133.2 144.15 101.58 118.68 31.62 -91.44 202.05c-56.47,251.1 -74.02,674.93 56.17,899.85 378.05,278.19 499.93,526.06 921.04,768.93l41.81 -132.92z"/>
   <path class="fil1" d="M2547.61 2758.01c160.42,-114.2 170.16,-100.51 361.93,-36.48l-156.9 291.22 -205.03 -254.74zm-364.21 461.1l68.19 -165.41 -61.72 -95.61c416.8,217.33 976.15,600.82 1128.79,-287.54l95.43 -3.63c-112.11,108.92 -110.09,58.08 25.06,149.12 129.75,-149.65 162.29,-107.14 -25.06,-149.12 -86.98,-282.27 -236.07,-375.15 -506.84,-483.1 -256.49,52.65 -609.59,193.77 -792.68,379.77l75.3 394.5 -6.47 261.02c-143.13,102.3 -122.02,51.58 43.14,140.29 92.73,-137.67 112.78,-92.96 -43.14,-140.29z"/>
   <path class="fil3" d="M2839.53 3712.15c308.29,-246.55 396.25,-150.09 650.34,-491.15l-14.59 -97.91 -36.13 -307.05c-135.15,-91.04 -137.17,-40.2 -25.06,-149.12l-95.43 3.63c-152.64,888.36 -711.99,504.87 -1128.79,287.54l61.72 95.61 -68.19 165.41c155.92,47.33 135.87,2.62 43.14,140.29l491.02 391.4 121.97 -38.65z"/>
   <path class="fil2" d="M2622.79 4379.64c-371.2,-247.79 -289.35,-243.23 -709.44,-218.8 -174.69,-242.25 -98.54,-301.27 -390.93,-418.9 -175.16,249.45 -46.81,151.99 5.88,401.17l-230.41 80.51c292.08,167.89 1005.13,243.12 1324.9,156.02z"/>
   <path class="fil2" d="M1218.18 3231.57c-269.95,106.08 -277.85,179.26 -371.55,460.34 346.96,226.87 675.97,-135.5 371.55,-460.34z"/>
   <path class="fil1" d="M791.21 3274.7c-293.61,-647.99 -49.54,-568.82 -136.35,-842.72 -335.39,171.29 -175.96,652.95 136.35,842.72z"/>
   <path class="fil4" d="M2839.53 3712.15c208.58,6.22 436.04,-109.42 606.61,-237.48l43.73 -253.67 -14.59 -97.91 14.59 97.91c-254.09,341.06 -342.05,244.6 -650.34,491.15l-121.97 38.65 121.97 -38.65z"/>
   <polygon class="fil3" points="2097.59,780.62 2112.47,704.8 1631.89,712.95 1450.26,1127.29 1812.8,766.3 "/>
   <polygon class="fil2" points="1297.89,4223.62 1191.8,4132.89 1027.34,4025.28 947.57,4144.47 1180.27,4430.17 "/>
   <path class="fil1" d="M2752.64 3012.75l156.9 -291.22c-191.77,-64.03 -201.51,-77.72 -361.93,36.48l205.03 254.74z"/>
   <path class="fil1" d="M2233.9 1096.53c-7.23,-225.09 38,-238.97 -185.45,-205.56l185.45 205.56z"/>
   <polygon class="fil4" points="2112.47,704.8 2097.59,780.62 2227.5,653.31 "/>
   <path class="fil5" d="M4045.71 2121.67c-66.46,98.68 -81.83,61.11 5.55,119.97l-5.55 -119.97z"/>
   <polygon class="fil6" points="1904.26,4765.41 2144.25,4824.91 "/>
   <polygon class="fil6" points="1566.48,4629.35 1764.96,4674.03 "/>
   <polygon class="fil2" points="2166.14,298.78 1856.19,289.43 "/>
   <polygon class="fil7" points="719.63,3865.63 798.18,4017.53 "/>
   <polygon class="fil8" points="304.47,1468.53 299.6,1677.52 "/>
   <polygon class="fil6" points="1620.57,-1070.08 1457.2,-992.22 "/>
   <polygon class="fil8" points="521.94,3646.01 594.88,3797.61 "/>
   <polygon class="fil8" points="829.67,759.03 678.42,800.29 "/>
   <polygon class="fil8" points="1214.19,442.92 1323.15,384.69 "/>
   <polygon class="fil9" points="847.41,734.07 969.16,653.67 "/>
   <polygon class="fil8" points="1036.78,574.02 1153.42,503.32 "/>
   <polygon class="fil9" points="261.75,1721.15 237.5,1903.22 "/>
   <path class="fil10" d="M2483.09 4791.52l164.23 -6.46c1332.65,-93.89 2417.03,-1308.6 2082.21,-2902.21l-207.14 173.05c-264.09,-955.63 -451.8,-582.31 -606.84,-1152.48 -392.47,-284.14 -912.11,-569.95 -1360.77,-539.33 -257.59,256.03 -142.65,70.61 -12.93,268.58l141.46 18.24c360.73,126.02 459.65,364.21 798.04,594 342.56,281.63 401.56,270.82 346.58,644.58 -1.59,36.88 -5.5,154.32 -8.9,220.86 -11.8,225.51 30.34,82.91 -49.27,287.15 15.3,73.12 24.38,71.14 38.18,191.49l-9.27 1113.12c-229.06,186.17 -493.62,289.89 -724.99,315.32 -148.69,118.04 -136.31,122.67 -294.95,191.08 -203.09,87.52 -179.7,43 -253.42,39.27 -301.87,108.78 -919.88,-84.57 -1200.93,-245.07l-153.04 222.22 428.57 298.39c127.31,-16.05 -12.02,-57.03 252.5,8.82 89.02,22.24 94.57,36.51 182.61,72.9 175.64,72.61 299.27,129.51 448.07,186.48z"/>
  </g>
 </g>
</svg>
