<?xml version="1.0" encoding="UTF-8"?>
<!DOCTYPE svg PUBLIC "-//W3C//DTD SVG 1.1//EN" "http://www.w3.org/Graphics/SVG/1.1/DTD/svg11.dtd">
<!-- Creator: CorelDRAW 2017 -->
<svg xmlns="http://www.w3.org/2000/svg" xml:space="preserve" width="100%" height="100%" version="1.1" style="shape-rendering:geometricPrecision; text-rendering:geometricPrecision; image-rendering:optimizeQuality; fill-rule:evenodd; clip-rule:evenodd"
viewBox="0 0 7500 7500"
 xmlns:xlink="http://www.w3.org/1999/xlink">
 <defs>
  <style type="text/css">
   <![CDATA[
    .fil0 {fill:#FFFF99}
    .fil1 {fill:#FFFFCC}
   ]]>
  </style>
 </defs>
 <g id="Слой_x0020_1">
  <metadata id="CorelCorpID_0Corel-Layer"/>
  <g id="_2786263905568">
   <circle class="fil0" cx="3777" cy="3774.61" r="3660.13"/>
   <g>
    <path class="fil1" d="M3333.7 5767.07l794.75 -85.02c-173.76,253.28 -399.88,123.98 -794.75,85.02zm-1565.9 -603.53c263.3,-198 144.98,-232.59 607.09,-91 -133.02,394.7 267.18,429.13 -320.52,431.23 -427.84,1.62 -216.1,-242.45 -286.57,-340.23zm661.56 -4656.64c503.97,145.47 22.63,-281.89 332.32,227.09 -403.11,108.78 -21.66,-18.26 -325.21,185.55 -335.38,225.48 302.58,-90.99 -356.72,187.01l-348.16 -204.95c-160.66,91.49 -54.95,-15.84 -312.59,220.79l-582.04 653.81c-579.13,864.25 -578.97,1729.63 -342.34,2599.54 196.54,722.66 150.8,711.67 661.24,1034.77 118.96,-434.14 -5.34,-147.73 198.32,-247.78 -310.98,-371.27 30.71,-126.4 161.96,137.55l-227.91 394.71c21.34,25.05 200.43,240.83 229.2,267.34 188.95,173.91 55.76,51.07 305,196.22l86.47 -447.4 676.92 -0.65c0,1194.47 9.38,343.15 -272.99,683.87l-0.65 -328.92 -198.16 55.92 -156.63 155.98c144.02,204.79 -384.36,51.72 215.14,208.18l314.54 122.52c405.69,-90.35 181.83,253.12 373.21,-213.68 690.17,123.49 924.21,337.97 1732.86,36.53 459.2,-171.33 328.44,65.3 455.97,-447.08 478.27,332.32 101.66,367.07 684.35,136.91 -123.16,424.12 -63.04,221.27 -273.81,547.45l125.59 0c216.11,-377.74 91.81,-145.15 286.42,-413.95 159.37,-220.14 26.18,-2.1 205.27,-307.91 -610.97,109.91 -202.04,59.81 -284.8,-98.59l353.17 -274.45c0,675.78 -91.16,-32.33 267.99,273.8 489.91,-740.6 442.39,-569.27 736.23,-1583.35 201.08,-694.38 112.34,-1049.65 -159.85,-1664.01l-530.8 15.51c9.21,-25.7 111.04,-321.32 134.31,-390.02 13.74,-40.73 60.13,-186.36 73.71,-229.68 -100.54,-309.52 -134.64,-352.52 -429.62,-615.66 -201.07,-179.41 -398.75,-293.04 -564.42,-394.86 -746.1,-301.29 -268.47,25.86 -807.52,-64.5l35.07 -453.05c-912.09,-324.88 -1603.88,-392.77 -2471.04,39.44z"/>
    <path class="fil1" d="M2487.07 6608.05c387.91,66.43 788.12,240.99 1096.84,281.4 572.18,74.84 688.23,-160.01 1278.51,-49.3 288.35,-207.86 -346.06,-52.37 436.57,-218.52 348.48,-74.03 142.4,-50.92 286.25,46.55l-125.59 0c210.77,-326.18 150.65,-123.33 273.81,-547.45 -582.69,230.16 -206.08,195.41 -684.35,-136.91 -127.53,512.38 3.23,275.75 -455.97,447.08 -808.65,301.44 -1042.69,86.96 -1732.86,-36.53 -191.38,466.8 32.48,123.33 -373.21,213.68z"/>
    <path class="fil1" d="M1822.43 6158.55c-132.05,197.68 -115.24,118.8 134.96,118.8l156.63 -155.98c-284.32,-216.59 -130.44,-90.51 -292.07,-458.39 622.93,109.59 554.72,99.24 490.23,402.47l0.65 328.92c282.37,-340.72 272.99,510.6 272.99,-683.87l-676.92 0.65 -86.47 447.4z"/>
   </g>
  </g>
 </g>
</svg>
